<svg version="1.2" xmlns="http://www.w3.org/2000/svg" viewBox="924.0000000000013 233.0995904535806 933.4255974301194 1091.300409546423" width="467" height="546"><style>.a{opacity:.99;fill:#110b09}</style><path fill-rule="evenodd" class="a" d="m1390 234.2c-1.3 0.6-2.3 1.5-2.2 2 0.1 0.4-0.4 0.8-1 0.8-0.7 0-4 1.7-7.3 3.8-3.3 2.1-8.5 5.2-11.5 6.9-3 1.6-7.8 4.4-10.5 6.1-2.8 1.7-8.4 5.1-12.5 7.5-4.1 2.4-8.4 4.8-9.5 5.4-1.1 0.7-5.6 3.3-10 5.8-4.4 2.6-8.7 5.1-9.5 5.5-0.8 0.5-6.6 3.8-12.8 7.5-6.1 3.6-11.5 6.5-11.9 6.5-0.5 0-1.5 0.7-2.3 1.4-0.8 0.7-4 2.7-7 4.3-3 1.7-12.3 7-20.5 11.8-8.3 4.8-16.8 10-19 11.5-2.2 1.5-4.5 2.9-5 3.1-0.5 0.2-7.5 4.1-15.5 8.7-8 4.6-15.2 8.7-16 9.2-0.8 0.5-4.5 2.7-8.3 5-3.7 2.2-7.2 4-7.7 4-0.5 0-1.1 0.4-1.2 0.9-0.2 0.4-3.7 2.8-7.8 5.1-4.1 2.4-10.2 5.9-13.5 7.7-3.3 1.9-6.7 3.8-7.5 4.3-0.8 0.5-6.5 3.8-12.5 7.2-6 3.5-11.7 6.7-12.5 7.1-0.8 0.4-4.3 2.5-7.7 4.7-3.5 2.2-6.5 4-6.8 4-0.3 0-3.8 1.9-7.7 4.3-4 2.4-11.8 6.9-17.3 10.2-5.5 3.2-11.7 6.9-13.7 8.2-2.1 1.2-4 2.3-4.3 2.3-0.3 0-3 1.7-6 3.8l-5.5 3.7c0 287.5 0.2 372.4 0.5 374 0.5 2.6 2.3 4 14.3 10.9 7.5 4.4 19.1 11.1 25.7 14.9 6.6 3.9 14.5 8.4 17.5 10.2 3 1.7 11.6 6.7 19 11 7.4 4.3 20.3 11.7 28.5 16.5 8.3 4.8 17 9.9 19.5 11.2 2.5 1.4 14.8 8.6 27.5 16 12.7 7.4 30.7 17.9 40 23.3 9.3 5.3 18.2 10.6 19.8 11.6 1.5 1 2.9 1.9 3.2 1.9 0.3 0 1.7 0.9 3.3 1.9 1.5 1.1 9 5.5 16.7 9.8 7.7 4.4 20.8 11.9 29 16.8 8.3 4.8 21.3 12.5 29 17 7.7 4.6 15.6 9.2 17.5 10.3 1.9 1 6.3 3.6 9.8 5.6 5.7 3.3 6.4 3.5 9 2.2 1.5-0.7 5.6-3 9.2-5.1 3.6-2 7.8-4.5 9.5-5.5 1.7-0.9 5.5-3.3 8.5-5.2 3-1.9 10.5-6.3 16.5-9.7 6-3.5 14.2-8.2 18-10.5 3.8-2.3 9.5-5.6 12.5-7.3 3-1.6 11.1-6.3 18-10.3 6.9-4 14.5-8.5 16.8-9.9 2.4-1.4 5.8-3.4 7.5-4.5 1.8-1 9-5.2 16.2-9.3 7.2-4.2 13.9-8 15-8.5 1.1-0.5 4.8-2.6 8.3-4.6 3.4-2 13.5-8 22.3-13.2 8.8-5.2 19.2-11.3 23-13.5 3.7-2.2 10.8-6.3 15.6-9.1 4.8-2.8 9.5-5.4 10.3-5.7 0.8-0.4 5.1-2.9 9.5-5.6 4.4-2.7 13-7.7 19-11.1 6-3.4 14.6-8.4 19-11 4.4-2.6 13.4-7.9 20-11.8 6.6-3.8 14.9-8.5 18.3-10.3 3.5-1.9 7.5-4.4 8.8-5.6l2.4-2.3v-376c-4.6-2.7-6-3.8-6-4.2 0-0.5-0.5-0.8-1-0.8-0.5 0-3.4-1.5-6.3-3.4-2.8-1.8-7-4.2-9.2-5.3-2.2-1.1-8.2-4.5-13.3-7.7-5-3.1-9.7-5.6-10.2-5.6-0.5 0-1-0.4-1-1 0-0.5-1.1-1.2-2.5-1.5-1.4-0.3-2.5-0.9-2.5-1.5 0-0.5-0.5-1-1-1-0.5 0-5.4-2.6-10.8-5.9-5.3-3.2-12.2-7.2-15.2-8.8-3-1.6-10.7-6-17-9.7-6.3-3.8-13.3-7.8-15.5-9.1-2.2-1.2-7.2-4.2-11-6.5-3.8-2.4-8.6-5.2-10.5-6.3-1.9-1.1-5.8-3.2-8.5-4.7-2.8-1.5-8-4.6-11.8-6.9-3.7-2.2-7-4.1-7.5-4.1-0.4 0.1-1.8-0.8-3.2-1.8-1.4-1-5-3.3-8-4.9-3-1.7-10.9-6.2-17.5-10.1-6.6-3.8-19-11-27.5-15.9-8.5-4.9-17.3-10.1-19.5-11.5-2.2-1.4-7.2-4.2-11-6.3-3.8-2.1-8.9-5.1-11.3-6.6-2.3-1.6-4.5-2.9-5-2.9-0.4-0.1-3.2-1.6-6.2-3.4-3-1.9-7.5-4.5-10-5.8-2.5-1.4-8.2-4.8-12.8-7.6-4.5-2.9-8.4-5.2-8.7-5.2-0.3 0-2.2-1.1-4.3-2.3-2-1.3-7.5-4.7-12.2-7.5-4.7-2.8-8.7-5.1-9-5.1-0.3 0-1.6 0.5-3 1.1zm-9 21.5c2.5-1.4 5.1-2.5 5.7-2.6 1-0.1 1.3 5.4 1.4 48.4l-28.6 27.3v44.1l-38.5 38.6v9.8c0 5.8-0.4 9.7-1 9.7-0.5 0-2.3 1.5-4 3.3-1.6 1.7-3.2 4.6-3.5 6.2-0.3 1.6-0.1 4.4 0.3 6 0.5 1.7 2.3 4 4.3 5.3 2.2 1.5 4.9 2.2 7.7 2.2 3 0 5.1-0.7 7.2-2.5 1.7-1.4 3.3-3.9 3.6-5.7 0.4-1.8 0.4-4.4 0.1-5.8-0.3-1.4-2.1-4.1-4.1-6-1.9-1.9-3.6-4.4-3.7-5.5-0.1-1.1-0.2-4.7 0.1-14l15.6-15.5c8.6-8.5 17.1-17 21.9-22.2l1-46.2 21-18.8 0.5 161.2h10l0.5-161.3 21.5 19.3v45.5l37.9 37 0.6 16.1-3.7 3.7c-2.1 2-4.1 4.9-4.4 6.5-0.4 1.5-0.4 4.2 0 6 0.3 1.8 1.9 4.3 3.6 5.7 1.7 1.4 4 2.5 5.3 2.6 1.2 0.1 3.5 0 5.2-0.1 1.7-0.1 4.2-1.3 5.8-2.8 1.5-1.5 3-4.3 3.3-6.2 0.4-2.3 0.1-4.6-1-6.7-0.9-1.8-3-4.3-4.6-5.5-3-2.3-3-2.4-3-21.3l-38-38v-44.5l-29-27.5v-24.2c0-15.5 0.4-24.3 1-24.3 0.5 0 3.6 1.5 6.8 3.4 3.1 1.9 10.7 6.2 16.7 9.7 6 3.4 12.2 6.9 13.7 7.8 1.8 1.1 2.8 2.7 3.2 5.1 0.3 1.9 0.6 22.2 0.6 86.5l20.9 21c11.5 11.6 21.4 22.2 22 23.8 0.7 1.7 1.1 11.1 1.1 46.7l6.5-0.5 0.5-48.5-43.9-44.5-0.1-83.5 7.1 4.3c3.9 2.3 8.7 5.2 10.8 6.4 2 1.3 4.3 2.7 5.1 3.2 1.3 0.8 1.5 5.6 1.9 62.6l36.1 36-0.1 39-4.2 3.6c-3.7 3.3-4.2 4.1-4.2 8 0 2.8 0.7 5.4 2 7.1 1.1 1.5 3 3.1 4.3 3.7 1.2 0.6 3.9 1.1 6.1 1.1 2.8 0 4.5-0.7 6.6-2.7 1.5-1.6 3.2-3.9 3.7-5.3 0.5-1.4 0.7-3.6 0.4-5-0.3-1.4-2.4-4.3-8.6-10.5v-43l-16.5-16c-9.1-8.8-17.2-17.2-18-18.7-1.2-2.3-1.5-7.9-1.5-28.8 0-14.3 0.2-26 0.5-26 0.3 0 2.4 1 4.6 2.3 2.3 1.2 4.9 2.7 5.8 3.2 0.9 0.6 4.2 2.5 13.1 7.5l0.1 42.5 27.5 16c15.2 8.8 36.2 21 46.7 27 10.6 6.1 23.7 13.8 29.2 17.1 5.5 3.3 20.9 12.2 34.3 19.7 13.3 7.5 24.2 14.2 24.2 14.7 0 0.6-0.5 1-1 1-0.5 0-4.9 2.4-18.5 10.6l-5.5-3.4c-3-2-15.2-9.2-27-16-11.8-6.9-23.3-13.5-25.5-14.7-2.2-1.2-9.6-5.4-16.5-9.2-11.5-6.4-12.7-7.4-14.7-11.6-1.3-2.6-3.3-5.4-4.5-6.2-1.3-0.8-4.2-1.5-6.5-1.5-3.5 0-5 0.6-7.8 3.3-2.9 2.7-3.4 3.9-3.5 7.7 0 2.9 0.7 5.6 2 7.5 1.1 1.7 3 3.5 4.3 4.2 1.2 0.7 3.4 1.2 5 1.3 1.5 0 4-0.7 5.7-1.5 1.7-0.8 3.2-2.1 3.3-2.7 0.3-1 1.6-0.7 4.8 0.9 2.4 1.3 8.2 4.5 12.9 7.2 4.7 2.7 16.8 9.6 27 15.3 10.2 5.8 23.1 13.1 28.8 16.4 5.7 3.2 10.3 6.1 10.2 6.4 0 0.3-2.4 1.8-5.3 3.4-2.8 1.6-9.5 5.5-14.7 8.6-5.2 3.1-11.5 6.8-14 8.2-2.5 1.4-7.2 4.2-10.5 6.1-3.3 2-6.8 4.2-7.9 4.9-1.8 1.2-1.7 1.4 0.8 4.6 1.4 1.7 3.1 3.2 3.6 3.2 0.5 0 5.4-2.6 10.8-5.8 5.3-3.3 16.8-10 25.5-15 8.6-5.1 15.9-9.2 16.2-9.2 0.3 0 0.5 12.7 0.5 28.3 0 25.1-0.2 28.5-1.7 30.7-1 1.4-2.6 3.4-3.6 4.5-1.1 1.1-5.4 6.3-9.7 11.5-4.3 5.2-9 10.9-10.5 12.5-1.4 1.7-2.5 3.8-2.5 4.8 0 0.9 0.6 2.8 1.3 4.2 0.6 1.4 1.5 2.5 2 2.5 0.4 0 0.7-0.3 0.7-0.7-0.1-0.5 4.5-6.4 10.1-13.3 5.6-6.9 12.6-15.6 20.8-26.5l0.1-62.5 2.8-1.8c1.5-1.1 5.6-3.5 9.2-5.5 3.6-2 6.8-3.7 7.3-3.7 0.4 0 0.7 18 0.7 80l-4.3 5.8c-2.4 3.1-5 6.4-5.8 7.2-0.8 0.8-4.2 5.1-7.6 9.5-3.4 4.4-6.9 8.8-7.8 9.8-1.3 1.5-1.5 12.3-1.5 90.7 0 58.7-0.3 89-1 89-0.5 0-3.2-1.6-6-3.5-2.7-1.9-5.3-3.5-5.7-3.5-0.5 0-1.5 1.2-2.3 2.7-0.8 1.6-1.5 3.1-1.7 3.6-0.2 0.4 1.6 2 4 3.5 2.3 1.5 5 3.1 6 3.5 0.9 0.4 1.7 1 1.7 1.5 0 0.4-12.2 7.7-27.2 16.2-14.9 8.5-30.6 17.5-34.8 20-4.2 2.5-8.3 5-9.1 5.6-0.8 0.6-3.7 2.4-11.4 6.7l-3-2.1c-1.7-1.1-4.6-2.3-6.5-2.6-2.6-0.5-4.3-0.1-6.8 1.4-2 1.3-3.6 3.3-4.4 5.8-0.8 2.8-0.8 4.7 0 8 0.9 3.1 2 4.6 4.2 5.7 1.7 0.8 4.7 1.5 6.8 1.5 2 0 4.7-0.7 6-1.5 1.2-0.8 3.2-3.6 4.5-6.2 1.4-2.9 3.3-5.3 5.2-6.2 1.7-0.9 7.7-4.2 13.5-7.5 5.8-3.2 11.8-6.7 13.5-7.6 1.7-1 7.3-4.2 12.5-7.2 5.2-3 17.2-10.1 26.5-15.7 15.4-9.2 17.2-10.1 19.5-9 1.4 0.6 5.8 3.2 9.8 5.7 4 2.6 7.2 4.9 7.2 5.2 0 0.3-3.7 2.7-8.3 5.4-4.5 2.7-13.5 8-19.9 11.8-6.5 3.7-12.3 6.8-12.8 6.8-0.5 0-1.1 0.4-1.3 0.8-0.1 0.5-2.7 2.2-5.7 3.9-3 1.6-9.3 5.2-14 7.8-4.7 2.7-8.7 5.1-9 5.5-0.3 0.3-3.2 2.1-6.5 4-3.3 1.8-15.7 9-27.5 15.8-11.8 6.9-23.3 13.7-25.5 15.2-2.2 1.4-6.5 3.9-9.5 5.5-3 1.5-8.9 5-20.5 12.2l-1 44.3-11 6.4c-6 3.6-11.3 6.3-11.8 6-0.4-0.2-0.7-13.2-0.7-57.4l6.3-6.7c3.4-3.6 7.5-8.1 9.2-9.8 1.7-1.7 6.9-7.4 20.3-22l1.2-45 2.5-1.2c1.4-0.7 3-2.2 3.5-3.3 0.5-1.1 1-4 1-6.5 0-2.5-0.5-5.4-1-6.5-0.5-1.1-2.6-2.7-4.5-3.5-1.9-0.8-4.9-1.5-6.6-1.5-2.2 0-4.1 1-6.5 3.5-2.9 3-3.4 4.2-3.4 8.5 0 4.6 0.3 5.3 7.9 11.5l0.1 40.5-8.3 8.6c-4.5 4.7-9.7 10.2-11.6 12.2-1.9 2.1-6.3 6.6-16 16.7l-0.6 66.9-10.5 6.3c-5.8 3.5-11.3 6.8-12.3 7.3-1.6 0.9-1.7-1.4-1.7-87.5l20-20c11-11 20.9-21.3 22-23 1.9-2.9 1.9-4.9 2-97.5l-2.5-3c-1.4-1.6-3-3-3.5-3-0.7 0-1 17.4-1.1 100.5l-11.2 11.1c-6.2 6.2-16 16.1-32.6 32.9l-0.1 94.5-2.2 1.1c-1.3 0.7-7.9 4.6-14.8 8.9-6.9 4.2-14.3 8.7-16.5 9.9-2.2 1.1-5 2.9-8.6 5.6l0.1-59.5 27.5-19.6 0.5-23.5c0.3-12.9 1-24.2 1.5-25.1 0.5-0.9 4.6-5.4 9-10 4.3-4.6 12.3-12.8 27.4-28.3l0.1-6.5c0-3.6 0.3-8.7 0.6-11.5 0.5-4.2 1-5.3 3.5-6.7 1.6-1 3.5-3.3 4.3-5 0.9-2.2 1.2-4.7 0.8-7.4-0.4-2.2-1.4-4.8-2.2-5.8-0.8-0.9-3.1-2.2-5-2.8-1.9-0.5-4.8-0.8-6.5-0.4-1.7 0.3-4.2 1.6-5.6 2.8-1.7 1.5-2.8 3.8-3.3 6.8q-0.7 4.5 0.6 7.4c0.7 1.5 2.5 3.5 4.1 4.2 2.7 1.4 2.7 1.5 2.7 11.2 0 9.4-0.1 9.8-3.1 13.2-1.7 1.9-6.9 7.5-11.7 12.5-4.7 5-11.8 12.4-23.1 24l-0.1 46.5-10.5 8c-5.8 4.4-10.7 8-11 8-0.3 0-0.5-48.1-0.5-214l-9.5 0.5-0.1 106.5c-0.1 80.4-0.4 106.4-1.2 106.3-0.7-0.2-4.7-3.1-8.9-6.6-4.3-3.5-8.6-6.7-9.5-7.2-1-0.6-1.9-2.1-2.2-3.5-0.2-1.4-0.5-12.1-0.6-45l-8.2-8.6c-4.6-4.8-13.1-13.7-29.8-30.9v-18.5l3.5-3.2c2.8-2.7 3.4-4 3.5-7.5 0-2.4-0.5-5.4-1-6.8-0.5-1.4-2.5-3.4-4.2-4.5-1.8-1.1-4.3-2-5.5-2-1.3 0-4 0.8-6 1.8q-3.7 1.7-5.1 5.2c-0.8 2.1-1.2 5-0.8 7.3 0.3 2 1.2 4.3 1.9 5 0.6 0.7 2.4 2 4 3 2.6 1.7 2.7 1.9 3.2 23.5l15 15.2c8.3 8.5 16.3 16.7 18 18.4 1.6 1.7 3.5 4.2 4.2 5.6 0.8 1.7 1.2 9.3 1.3 24.5 0.1 12.1 0.3 22.3 0.6 22.8 0.2 0.4 3.9 3.3 8.2 6.5 4.2 3.1 10.3 7.5 19.3 13.7l0.2 8c0.1 4.4 0.2 17.2 0.2 28.3 0 11.2-0.2 20.8-0.5 21.4-0.3 0.6-5.5-1.8-11.5-5.3-6-3.4-15.2-9-29.6-18.4l0.1-46c0-25.3-0.4-46.5-0.8-47.2-0.4-0.6-10.3-10.9-43.2-44.3v-50.5c0-27.8-0.3-50.5-0.7-50.5-0.5-0.1-2.3 1.4-7.5 6.5l0.7 47.5c0.5 32.3 1.1 48.2 1.9 49.7 0.6 1.2 10.3 11.6 42.1 43.7l0.3 43.8c0.1 24.1-0.1 43.8-0.5 43.8-0.5 0-6-3.1-23.8-13.7l-0.4-66.8-2.7-3c-1.5-1.6-9.6-10.1-33.4-34.5v-41l4-3.7c3.1-3 3.9-4.6 4-7.3 0-1.9-0.8-5.1-1.8-7-0.9-1.9-2.8-4-4.2-4.7-1.4-0.7-3.7-1.3-5.2-1.3-1.6 0-4.1 0.8-5.8 1.8-1.6 0.9-3.7 3.3-4.6 5.2-1.1 2.3-1.4 4.8-1 7.3 0.4 2.6 1.7 4.6 7.6 9.7v21.3c0 18.5 0.2 21.5 1.8 23.8 0.9 1.4 9 10.2 34.2 36.4l0.1 22c0.1 12.1 0.2 25 0.2 28.7 0.1 3.6-0.1 6.9-0.5 7.2-0.5 0.3-6-2.4-23.7-12.9v-44l-6.8-4.1c-3.7-2.2-15.8-9.4-26.8-15.9-11-6.5-22-12.9-24.5-14.3-2.5-1.4-9.6-5.6-15.7-9.4-6.2-3.7-11.5-6.8-11.8-6.8-0.3 0-2.5-1.3-5-3-2.5-1.6-4.7-3-5-3-0.3 0-5.6-3-11.7-6.7-6.2-3.7-12.9-7.7-14.9-8.8-2-1.1-11.5-6.5-21.2-12-9.7-5.5-17.7-10.2-17.7-10.5-0.1-0.3 3.9-2.8 8.7-5.7 4.8-2.9 9.4-5.3 10.1-5.3 0.6 0 4.5 1.8 8.5 4.1 3.9 2.2 11.2 6.4 16.2 9.3 5 2.9 18.5 10.7 30 17.3 11.5 6.7 23.9 13.5 27.5 15.3 6 2.9 6.6 3.5 7.8 7.6 0.6 2.4 2.2 5.1 3.5 5.9 1.2 0.9 4.2 1.6 6.7 1.7 2.8 0.1 5.6-0.4 7.3-1.5 1.6-1 3.1-3.2 3.8-5.4 0.6-2.1 0.9-5.1 0.5-6.8-0.3-1.6-1.8-4.3-3.3-5.8-2.1-2.1-3.9-2.9-7-3-3-0.1-5.1 0.5-7.5 2.2-2.4 1.8-3.7 2.1-4.8 1.4-0.8-0.6-15.5-9-32.5-18.7-17-9.8-33.7-19.5-37-21.6-3.3-2.1-7.3-4.5-8.8-5.2-1.5-0.7-2.7-1.5-2.7-1.8 0-0.3 2.7-2.2 12-8l-1.6-3.2c-0.9-1.8-1.8-3.4-2-3.5-0.2-0.2-3.3 1.3-6.9 3.2-3.6 1.9-6.7 3.5-7 3.5-0.3 0-0.5-12.9-0.5-28.7 0-28.8 0-28.8 2.5-33.8 1.4-2.7 2.5-6.5 2.5-8.2 0-1.8-0.2-4-0.5-4.8-0.3-1-1.7 0.1-4.6 3.8-2.3 2.8-4.7 6.7-5.5 8.5-1.1 2.5-1.4 10.1-1.4 35.5 0 17.7-0.1 32.2-0.2 32.2-0.2 0.1-2.9 1.7-6 3.8-3.2 2-6 3.7-6.3 3.7-0.3 0-1.8 0.9-6.5 4l-0.3-41.7c-0.2-29.9 0-42.7 0.9-44.8 0.6-1.6 6.6-9.5 25.3-32l0.1-87.2c0-48 0.1-87.3 0.3-87.3 0.1-0.1 9 4.9 19.7 11.1 10.7 6.1 22.3 12.8 25.8 15 3.4 2.1 6.5 3.9 7 3.9 0.4-0.1 2-1.5 3.7-3.2 3-3.1 3-3.1 1-4.7-1.2-0.9-7.2-4.5-13.5-8-6.3-3.6-15.5-8.8-20.5-11.8-5-2.9-10.9-6.4-13.2-7.8-2.4-1.4-4.3-2.8-4.3-3.2 0-0.5 3-2.6 6.7-4.8 3.8-2.2 7.7-4.4 8.8-5.1 1.1-0.6 5-2.9 8.8-5.2 3.7-2.3 6.9-4.2 7.2-4.2 0.3 0 4.2-2.2 8.8-4.9 4.5-2.6 14-8.1 21.2-12.1 7.2-4 14.6-8.2 20.2-11.5l2.4 2.3c1.3 1.2 4 2.5 5.9 2.9q3.5 0.6 6.5-1.1c1.7-0.9 3.8-3 4.8-4.6 0.9-1.7 1.7-4.8 1.7-7 0-3.2-0.7-4.7-3.5-7.5-2.8-2.8-4.3-3.5-7.5-3.5-2.2 0-5.2 0.6-6.7 1.4-1.6 0.7-3.4 2.9-4.1 4.7-0.8 1.9-1.7 4.1-2.1 4.9-0.4 0.8-3.9 3.4-7.7 5.6-3.8 2.3-11.6 6.8-17.4 9.9-5.8 3.2-17 9.7-25 14.3-8 4.7-17.9 10.5-22 13-4.1 2.5-9.1 5.4-14.5 8.5l-6-3.3c-3.3-1.8-7.7-4.3-9.7-5.4-2.1-1.2-3.7-2.5-3.5-2.9 0.1-0.5 9.2-6.1 20.2-12.4 11-6.4 28.9-16.8 39.7-23.2 10.8-6.4 24-14.1 29.3-17.1 5.4-3 13.8-7.9 18.9-10.8 5-2.9 9.2-5.3 9.3-5.2 0.2 0 3.5-2 7.3-4.5 3.8-2.5 7.2-4.5 7.5-4.5 0.3 0 2.9-1.5 5.7-3.3 2.9-1.8 9.2-5.5 14.1-8.2 7.9-4.5 8.8-5.3 9.4-8.5 0.3-1.9 0.3-10.7 0-19.5-0.4-8.8-0.4-16.9-0.1-18 0.3-1.2 4.8-4.5 11-8.2 5.7-3.5 10.9-6.3 11.4-6.3 0.6 0 1 9.7 1 54.5l-36 36-0.1 42-3.4 3.8c-1.9 2-3.8 4.7-4.1 6-0.3 1.2-0.3 3.6 0.1 5.2 0.4 1.7 2 4.2 3.6 5.8 2.1 2 3.9 2.7 6.6 2.7 2.1 0 5.3-0.9 7-2 2.3-1.4 3.6-3.1 4.2-5.7 0.6-2.3 0.6-5 0-6.8-0.5-1.6-2.4-4.3-7.4-8.7l0.6-40.3 35.9-36 0.2-61.4 10.9-6.5c6-3.6 11.4-6.6 11.9-6.6 0.5 0 1 0.1 1.1 0.3 0 0.1 0.3 18.3 1.4 80.4l-44.5 45.3v24.5c0 13.5 0.3 24.5 0.7 24.6 0.5 0 1.8 0.2 3 0.5 2.2 0.4 2.3 0.1 2.3-6.8 0-4 0.3-14.9 1.5-41l43.4-43.3-0.1-90.2 14.9-8.5c8.1-4.7 16.8-9.7 19.3-11.1zm-115.5 67.2c5.5-3.2 10.6-5.8 11.2-5.8 1-0.1 1.3 3.8 1.3 32.9l-3.8 2.2c-2 1.2-10.7 6.2-19.2 11.1-8.5 5-19.4 11.3-24.2 14.1-4.8 2.8-13.8 8.1-20 11.7-6.2 3.7-12.9 7.5-14.8 8.6-1.9 1.1-20.6 12-41.5 24.2-20.9 12.2-38.8 22.1-39.8 22.1-0.9 0-5.4-2.2-10-4.8-4.5-2.6-10.5-6.4-13.4-8.3-2.9-1.8-5.1-3.5-5-3.6 0.1-0.1 5.4-3.3 11.7-7.2 6.3-3.9 15.3-9.1 20-11.7 4.7-2.6 20.7-11.9 35.5-20.6 14.8-8.8 34-19.9 42.5-24.7 8.5-4.9 18.9-10.8 23-13.2 4.1-2.4 8.1-4.9 8.8-5.6 0.7-0.7 1.8-1.3 2.3-1.3 0.5 0 6.4-3.2 13.1-7.2 6.8-3.9 16.8-9.7 22.3-12.9zm243.5 10.6c0-9.1 0.2-16.5 0.5-16.5 0.3 0 4.4 2.3 9.2 5.1 4.9 2.9 13.3 7.8 18.8 10.9 5.5 3.1 12.2 7 15 8.5 2.7 1.6 13.3 7.6 23.5 13.5 10.2 5.9 28.8 16.7 41.5 24 12.7 7.3 27.7 16.1 33.5 19.5 5.8 3.4 14.1 8.1 18.5 10.5 4.4 2.4 8.2 4.6 8.5 5 0.3 0.3 5.4 3.5 11.3 7 5.9 3.6 10.8 6.5 10.8 6.5 0 0-5.8 3.5-12.8 7.7-7 4.2-13.6 7.9-14.6 8.2-1.1 0.4-9.5-3.9-23.5-11.8-11.9-6.8-31.8-18.2-44.2-25.3-12.4-7.2-30.4-17.7-40-23.5-9.6-5.7-24.9-14.6-34-19.8-9.1-5.1-17.7-10.2-22-13zm-272.5 72.7c1.1-1.5 2.6-2.2 5-2.2 2.8 0 3.8 0.5 4.9 2.8 0.7 1.5 1.1 3.4 0.8 4.2-0.2 0.8-1.2 2.3-2.1 3.3-0.9 1-2.6 1.8-3.9 1.7-1.2 0-3.1-1-4.2-2.2-1-1.3-2-3-2.1-3.8 0-0.9 0.6-2.6 1.6-3.8zm304.1-0.7c0.9-0.9 2.8-1.5 4.2-1.3 1.4 0.2 3.4 1.5 6.7 5.8l-2.1 2.8c-1.2 1.5-3.2 2.8-4.5 3-1.3 0.1-3.2-0.5-4.2-1.5-1-1-1.8-3-1.8-4.5 0-1.5 0.7-3.4 1.7-4.3zm-460.1 32.2c0.5-0.4 1.1-0.7 1.4-0.7 0.3 0 6.2 3.2 13.1 7 6.9 3.9 13.2 7.4 14 7.9 1.3 0.7 1.5 11.1 2.1 163.6l-2.8 1.3c-1.5 0.6-3.6 2.6-4.6 4.2-0.9 1.7-1.7 4.5-1.7 6.3 0.1 1.7 0.6 4.2 1.3 5.4 0.7 1.3 2.5 3.2 4.2 4.3 1.7 1.1 4.6 2 6.5 2 1.9-0.1 4.5-0.6 5.7-1.3 1.3-0.7 3.2-2.6 4.3-4.2 1.2-1.8 2-4.6 1.9-7 0-3.3-0.7-4.7-8-12l0.6-156.5 19 10.5-0.5 176.5-11.3 13.6c-6.1 7.5-12 15-12.9 16.7-1.5 2.9-1.7 7.8-1.8 94.2l-3.3 2.1c-1.7 1.2-8.4 5.1-14.7 8.7-6.3 3.7-11.8 6.7-12.3 6.7-0.4 0-0.8-78.5-0.9-174.3-0.1-95.9 0.2-174.7 0.7-175zm190.9 1.4c1.5-1.1 3.4-1.7 4.4-1.4 0.9 0.3 2.5 1.3 3.5 2.2 1 0.9 1.8 2.8 1.7 4.4 0 1.7-0.8 3.3-2.3 4.2-1.2 0.8-3 1.5-4 1.5-0.9 0-2.6-1-3.7-2.2-1.1-1.3-2.1-3.3-2.1-4.5-0.1-1.2 1-3 2.5-4.2zm48.1 0.1c1-1.3 2.6-2.2 4.3-2.2 1.5 0 3.5 0.8 4.5 1.8 1 0.9 1.8 2.6 1.7 3.7 0 1.1-0.7 3-1.5 4.3-0.8 1.2-2.5 2.2-3.8 2.2-1.2 0-3.2-1-4.5-2.3-1.2-1.2-2.3-2.9-2.3-3.7-0.1-0.9 0.6-2.6 1.6-3.8zm138-0.4c1-1 3.1-1.8 4.6-1.8 1.9 0 3.4 0.8 4.4 2.3 0.8 1.2 1.5 3 1.5 4 0 0.9-1.1 2.8-2.5 4.2-1.3 1.4-2.9 2.5-3.5 2.5-0.5 0-2.1-1.1-3.5-2.5-1.4-1.4-2.6-3.5-2.7-4.7-0.1-1.2 0.7-3 1.7-4zm51.8-0.7c1.1-0.5 2.5-0.6 3.1-0.3 0.6 0.3 1.9 1.2 2.9 2.1 1 0.9 1.8 2.5 1.8 3.6-0.1 1.1-1 3-2.1 4.3-1.1 1.2-2.9 2.1-4.1 2-1.2-0.2-3.1-1.5-4.3-3-1.9-2.5-2-3-0.7-5.3 0.8-1.4 2.4-2.9 3.4-3.4zm180.3 7c7.6-4.4 14.5-8.1 15.1-8.1 1 0 1.3 35.7 1.3 175 0 139.3-0.3 175-1.3 175-0.6 0-3.2-1.3-5.7-2.9-2.5-1.5-8.6-5.2-13.7-8.2-6.3-3.7-9.4-6.1-9.8-7.6-0.3-1.3-0.5-38.3-0.5-162.3l2.5-1.5c1.4-0.8 3.4-2.4 4.5-3.5q2-2 2-6c0-2.2-0.7-5.3-1.5-7-0.8-1.6-2.8-3.7-4.5-4.5-1.7-0.8-4.1-1.5-5.5-1.5-1.4 0-3.8 0.7-5.5 1.5-1.7 0.8-3.7 2.9-4.5 4.5-0.8 1.7-1.5 4-1.5 5.3 0 1.2 0.4 3.6 1 5.2 0.5 1.7 2.1 3.7 3.5 4.5 2.4 1.5 2.5 1.8 2.8 14.5 0.2 7.2 0.3 43.5 0.2 80.8 0 37.2-0.2 67.6-0.5 67.5-0.3-0.2-4.7-2.8-19-11.3v-180l6.6-8c3.7-4.4 8.5-10.2 10.8-12.9 2.2-2.7 5.2-6.4 9.1-11.9l0.2-41.6c0.1-22.9 0.2-42.8 0.1-44.3-0.1-2.3 1.2-3.4 13.8-10.7zm-21.6 144.1c0.8-0.7 2.8-1.2 4.5-1.2 1.6-0.1 3.6 0.5 4.3 1.2 0.7 0.7 1.1 3.1 1 5.3-0.3 3.3-0.8 4.1-3 5-1.9 0.7-3.4 0.7-5.2-0.2-2-1-2.6-2.1-2.8-5.1-0.1-2.2 0.4-4.3 1.2-5zm-556.6 32.6c0.6-0.4 2-0.8 3.1-0.8 1.1 0 2.8 0.8 3.8 1.8 1 0.9 1.7 2.6 1.7 3.7 0 1.1-0.4 2.5-0.8 3.1-0.4 0.6-1.7 1.6-2.9 2.3-1.6 0.7-2.9 0.8-4.3 0.1-1.1-0.5-2.5-1.9-3-3-0.7-1.4-0.6-2.7 0.1-4.2 0.7-1.3 1.7-2.6 2.3-3zm160.7 147.2c1.3-0.5 2.7-0.9 3.2-0.9 0.4-0.1 1.9 0.3 3.4 0.9 2.4 0.9 2.7 1.4 2.3 4.7-0.4 2.7-1.2 4.2-3.1 5.3-2.4 1.4-2.9 1.3-5.3-0.2-1.9-1.3-2.6-2.8-2.8-5.3-0.1-2.9 0.3-3.7 2.3-4.5zm48 0.5c1.5-0.9 3.4-1.3 4.9-1 1.4 0.3 3.1 1.4 3.8 2.3 0.7 0.9 1.2 2.6 1.2 3.7 0 1.1-0.8 2.8-1.8 3.8-1 1-3.1 1.8-4.9 1.7-2.3 0-3.6-0.6-4.3-2-0.5-1.1-1.1-3.1-1.1-4.4-0.1-1.6 0.7-3.1 2.2-4.1zm138 0c1.3-0.8 3.3-1.5 4.4-1.5 1.1 0 2.8 0.8 3.8 1.8 1 0.9 1.8 2.6 1.7 3.7 0 1.1-0.7 3-1.5 4.3-0.9 1.3-2.5 2.2-4 2.2-1.4 0-3.4-0.4-4.5-1-1.4-0.7-2-2.1-2.1-4.4-0.1-2.7 0.4-3.9 2.2-5.1zm48.9-0.3c0.8-0.7 2.4-1.2 3.7-1.2 1.3 0 3.2 0.5 4.3 1 1.4 0.7 2 2 2 4.3 0 1.7-0.5 3.8-1.2 4.5-0.7 0.6-2.6 1.2-4.3 1.2-1.6 0-3.6-0.5-4.3-1.2-0.7-0.7-1.3-2.7-1.4-4.3-0.1-1.7 0.4-3.6 1.2-4.3zm-407 17.3c7.4-4.5 14-8.3 14.5-8.4 0.5 0 9.5 5 20 11.1 10.5 6.1 20.1 11.8 21.5 12.7 1.4 0.9 7.7 4.5 14 8.2 6.3 3.6 16.7 9.6 23 13.4 6.3 3.7 22.5 13.2 36 21 13.5 7.8 28.5 16.6 33.5 19.5 5 2.9 10.2 6 14.5 8.5l0.1 13.5c0 7.4 0.2 15.2 0.5 17.3 0.3 2.7 0 3.8-1.1 4.2-0.8 0.3-3-0.5-4.7-1.8-1.8-1.2-5.5-3.4-8.1-4.7-2.6-1.4-4.7-2.8-4.7-3.2 0-0.5-0.6-0.8-1.2-0.8-0.7 0-5.6-2.7-10.8-5.9-5.2-3.3-11.1-6.8-13-7.8-1.9-1.1-10.5-6-19-11-8.5-5-20.5-11.9-26.5-15.3-6-3.5-19.8-11.5-30.5-17.9-10.7-6.3-22-12.9-25-14.6-3-1.8-8.9-5.1-13-7.5-4.1-2.3-13.5-7.9-20.8-12.4-7.3-4.4-13.1-8.5-13-8.9 0.2-0.5 6.4-4.6 13.8-9.2zm561-2.6c5.2-3.2 9.7-5.8 10-5.9 0.3 0 5.2 2.8 11 6.3 5.8 3.5 12.2 7.4 14.2 8.8 2.1 1.3 3.8 2.6 3.8 2.9 0 0.3-3.6 2.9-8 5.8-4.4 2.8-8.2 5.2-8.5 5.2-0.3 0-2.9 1.5-5.7 3.3-2.9 1.8-6.4 3.9-7.8 4.7-1.4 0.7-9.2 5.2-17.3 9.9-8.2 4.7-17 9.8-19.5 11.4-2.6 1.5-5.4 3-6.2 3.4-0.8 0.4-6.2 3.6-12 7.1-5.8 3.6-12.1 7.4-14 8.5-1.9 1.1-7.1 4-11.5 6.5-4.4 2.5-8.2 4.9-8.5 5.2-0.3 0.4-1 0.9-1.5 1.1-0.5 0.2-5.4 2.9-10.9 5.9-5.4 3-11.5 6.4-13.5 7.6-2 1.1-5.2 3-7.1 4.1-1.9 1.1-6.5 3.9-10.2 6.1-3.8 2.3-7 4.2-7.3 4.2-0.3 0-1.7 0.8-3.2 1.9-1.6 1-6.3 3.9-18.3 11.1v-36.5l3.7-2.1c2.1-1.2 9-5.1 15.3-8.8 6.3-3.7 11.6-6.6 11.8-6.6 0.1 0 4.4-2.6 9.5-5.8 5-3.2 12.6-7.6 16.7-9.8 4.1-2.1 7.7-4.2 8-4.5 0.3-0.3 7.3-4.5 15.5-9.3 8.3-4.9 16.7-9.9 18.8-11.2 2-1.3 3.9-2.4 4.2-2.4 0.3 0 4.5-2.5 9.5-5.5 5-3 9.2-5.5 9.5-5.5 0.3 0 2.4-1.2 4.8-2.7 2.3-1.4 6.7-4 9.7-5.7 3-1.6 9.8-5.6 15-8.7zm-421.9 23.7c1.3-0.9 3.2-1.3 4.4-1 1.1 0.3 2.5 1.1 3.2 1.8 0.6 0.6 1.2 1.8 1.3 2.6 0.1 0.8 0.2 2.4 0.2 3.5-0.1 1.2-1.3 2.5-3.2 3.3-2.5 1-3.4 0.9-5.5-0.3-1.8-1.1-2.5-2.4-2.6-4.9-0.1-2.6 0.4-3.9 2.2-5zm302.1 0.1c0.7-0.3 2.3-0.6 3.5-0.6 1.3-0.1 3 0.6 3.8 1.4 0.8 0.8 1.5 2.5 1.5 3.8 0 1.2-0.4 2.7-0.8 3.3-0.4 0.6-1.6 1.6-2.7 2.1-1.2 0.7-2.9 0.7-4.3 0.2-1.2-0.5-2.7-1.8-3.2-2.9-0.7-1.3-0.7-2.8 0-4.4 0.5-1.3 1.5-2.6 2.2-2.9zm-487.7 245.2c-1.7 0.4-4.8 1.7-7 2.8-2.2 1.1-6 4-8.5 6.4-2.5 2.4-7.3 8.9-10.5 14.4-3.3 5.5-6.5 10.9-7.1 12-0.6 1.1-4.7 8.3-9.1 16-4.4 7.7-16 28.2-25.8 45.5-9.8 17.3-19.6 34.7-21.8 38.5-2.2 3.8-8.3 14.4-13.5 23.5-5.3 9.1-12.4 21.8-15.9 28.3-3.5 6.4-6.2 11.9-6.1 12.1 0.2 0.3 12.2 0.5 26.8 0.6 14.6 0.1 27 0.1 27.5 0.1 0.5 0 4-5.1 7.6-11.3 3.7-6.2 8.7-14.9 11.3-19.3 2.5-4.4 4.6-8.6 4.6-9.2 0-0.7 0.8-1.5 1.7-1.7 1-0.2 32.2-0.3 69.2-0.2l67.5 0.1c5.8 10.1 11 19.4 15.3 27.3l7.8 14.2c50.2 0 56.5-0.3 56.5-1.2 0-0.7-7.2-13.9-16.1-29.3-8.9-15.4-21.2-36.8-27.4-47.5-6.2-10.7-13.8-24-17-29.5-3.2-5.5-11.2-19.4-17.8-31-6.6-11.5-12.7-22.1-13.5-23.5-0.9-1.4-2.6-4.3-3.7-6.5-1.2-2.2-3.4-6.2-5-9-1.6-2.7-4.9-7.4-7.4-10.4-2.8-3.2-7.2-6.8-11.1-9l-6.5-3.6c-32.5-0.3-43.3 0-45 0.4zm20.3 42.4c0.9-0.7 1.9-1.3 2.2-1.3 0.3-0.1 1.2 0.7 2.1 1.7 0.9 1 3.8 5.6 6.4 10.3 2.6 4.7 6.8 12.1 9.3 16.5 2.5 4.4 7.9 13.8 12 21 4.1 7.2 9.7 16.7 12.4 21.3 2.6 4.5 4.8 8.5 4.8 9 0 0.4-21.1 0.6-47 0.5-25.8-0.2-47-0.6-47-1 0-0.5 4.5-8.7 10-18.3 5.5-9.6 10.1-17.7 10.1-17.9 0-0.2 1.5-2.9 3.3-6 1.9-3.1 7.1-12.1 11.6-20.1 4.4-8 8.9-15.1 9.8-15.7zm590.7-41.8c-3.8 0.7-10.4 2.7-14.5 4.5-4.1 1.8-9.9 5.1-12.9 7.4-2.9 2.2-6.8 6.1-8.6 8.6-1.8 2.5-3.9 6.5-4.8 9-0.9 2.5-2.1 7.2-2.7 10.5-0.5 3.3-1 11.6-1 18.5 0 6.9 0.5 15.4 1.1 19 0.5 3.6 2.1 9 3.5 12 1.4 3 4.1 7.4 6 9.8 2 2.4 6.2 5.8 10.1 7.9 3.8 2 10.6 4.8 15.3 6.2l8.5 2.5c127.7 1.1 130.1 1.2 133.4 3.1 1.9 1.1 4.3 3.3 5.5 4.8 1.8 2.5 2.1 4.2 2.1 13 0 7.1-0.5 11.1-1.5 13.1-0.8 1.7-2.9 3.8-4.5 4.7-2.8 1.6-9.5 1.8-88.9 2.1-66.6 0.2-86.3 0.6-87.7 1.6-1.7 1.1-1.9 2.8-1.9 20.7 0 12 0.4 19.7 1 20 0.5 0.3 42.5 0.5 93.2 0.5 63 0 94.2-0.4 98.3-1.1 3.3-0.6 8.5-2 11.5-3.1 3-1.2 8.4-4 12-6.4 3.6-2.3 7.7-5.8 9.1-7.6 1.5-1.8 3.8-5.5 5.2-8.3 1.4-2.7 3.3-8.2 4.3-12 1.4-5.4 1.9-10.6 1.8-22.5 0-11.5-0.5-17.2-1.8-22-0.9-3.6-2.9-8.7-4.4-11.5-1.5-2.7-5-7.3-7.7-10-2.8-2.8-7.7-6.4-11-8.2-3.3-1.7-9.6-4.2-14-5.4-7.9-2.3-8.5-2.3-64.5-2.1-35.7 0.1-59.3-0.2-64-0.9-4.1-0.6-9.3-1.9-11.5-2.9-2.3-1.1-4.8-3.3-5.9-5.2-1.5-2.7-1.8-4.9-1.5-12 0.4-8 0.6-8.9 3.4-11.7 1.7-1.8 4.8-3.5 7.2-4.1 2.7-0.6 33.6-1 84.3-1h80c2.8-4.1 3-7.6 2.8-22.1-0.2-13.9-0.6-18-1.8-19.3-1.4-1.6-7.9-1.7-88.5-1.6-66.9 0.1-88.6 0.5-94 1.5zm-359 0c-4.4 0.8-12.1 2.8-17 4.5-5 1.8-12.1 4.8-16 6.8-3.9 2.1-10 6.6-13.8 10.2-4.2 3.9-8.6 9.5-11.2 14-2.4 4.1-5.1 10.4-6 14-0.9 3.6-2.1 11.7-2.7 18-0.6 6.8-0.8 22.9-0.4 39.5 0.3 15.4 1 30.5 1.5 33.5 0.5 3 1.6 7.8 2.4 10.5 0.8 2.8 2.7 7.7 4.2 11 1.9 4 5.3 8.5 10.4 13.6 4.6 4.5 10.4 9.1 14.6 11.4 3.8 2.2 10.6 5.2 15 6.7 4.4 1.5 12.9 3.5 19 4.5 9.6 1.5 19.3 1.7 75 1.7 49.8-0.1 65.8-0.4 72-1.4 5.1-0.9 10.5-2.7 15-5 5.1-2.6 8-5 10.7-8.6 2.1-2.7 4.7-7.4 5.8-10.4 1.1-3 2.5-9.5 3-14.5 0.5-5.1 0.7-23.8 0.3-43-0.5-29.4-0.8-34.2-2.2-35.8-1.5-1.7-5.6-1.8-69.9-1.7h-68.2c-2.8 4.1-3 7.3-2.8 19.2 0.2 10.4 0.7 15.1 1.6 16 1 1 11.2 1.4 47.2 1.6l46 0.2c-0.5 34.2-0.6 35.1-2.8 37.2l-2.3 2.3h-117.4c-9.3-3.6-14-6.3-16.4-8.3-2.4-2-5.5-5.7-6.9-8.2-2.1-3.6-2.7-6.7-3.5-16-0.6-7.2-0.6-20-0.1-34 0.9-21.1 1.1-22.8 3.5-28 1.5-3 3.9-6.9 5.5-8.6 1.6-1.8 4.7-4.3 6.9-5.7 2.4-1.6 7.3-3.2 12.5-4.1 7.3-1.4 19.7-1.6 86.2-1.6 67.7 0 77.9-0.2 79.2-1.5 1.3-1.3 1.6-4.5 1.6-19.7 0.1-16.3-0.1-18.5-1.7-20-1.7-1.6-7.6-1.7-85.8-1.7-65.3 0.1-85.8 0.4-92 1.4zm224.5-0.8c-1.2 0.4-1.4 13.8-1.2 99.9 0.1 65.1 0.5 99.6 1.2 99.9 0.5 0.3 11.5 0.6 24.4 0.8 12.9 0.1 23.8-0.2 24.3-0.6 0.4-0.5 0.9-44.8 1.1-98.5 0.2-86.2 0.1-98-1.3-99.9-1.5-2.3-1.7-2.3-24.3-2.2-12.5 0-23.4 0.3-24.2 0.6zm-259-581.2c-3.6 0.8-8.5 2.2-11 3.1-2.5 0.9-8 3.4-12.3 5.5-4.2 2.2-10.3 5.5-13.5 7.6-3.1 2-8.6 6.1-12.1 9.2-3.5 3.1-8.2 8.3-10.3 11.6-2.1 3.3-6 11.2-8.7 17.5-2.7 6.3-8.7 23.2-13.4 37.5-4.8 14.3-9.7 30.3-11.1 35.5-1.4 5.2-4.8 19.6-7.5 32-2.8 12.7-5.9 30.6-7.2 41-1.9 16.4-2.1 19.9-1.1 31 0.7 7.4 2.2 16.2 3.7 21.5 1.5 5 3.9 11.7 5.5 15 1.5 3.3 5 8.4 7.7 11.4 2.6 3 7.2 7.2 10 9.3 2.9 2.1 7.2 4.6 9.5 5.6 3 1.2 7 1.7 13.4 1.7 8.7 0 9.4-0.2 18-4.4 7.7-3.9 10.5-6.1 20.4-16 6.4-6.4 12.5-12.7 13.6-14.1 1-1.4 3-4.1 4.4-6 1.3-1.9 7.8-10.5 14.4-19 6.7-8.5 14.3-17.6 17.1-20.2 3.1-3 7.2-5.6 11-7l6-2.3h153c8.6 4.1 13.6 7.8 16.8 11.1 3.3 3.3 12.5 14.4 20.6 24.9 8.1 10.5 17.4 21.9 20.7 25.4 3.2 3.5 8.3 8.7 11.3 11.5 2.9 2.8 7.9 6.8 11 8.9 3.1 2.1 8.8 4.8 12.6 5.9 5.5 1.7 8.5 2 14 1.5 5-0.5 8.9-1.6 13.5-3.9 4.1-2 8.9-5.7 13-9.8 4.5-4.6 7.7-9 10.4-14.5 2.2-4.4 5-12.5 6.3-18 1.5-6.3 2.6-14.7 3-22.5q0.5-12.5-1.1-26.5c-0.8-7.7-3.1-22.1-5.1-32-2-9.9-5.8-26.5-8.5-37-2.7-10.4-7.4-26.2-10.4-35-3-8.8-7.7-22.1-10.5-29.5-2.8-7.4-7.4-18.2-10.3-23.9-3.6-7.1-7.1-12.3-10.8-16.1-3-3.2-8.7-7.8-12.5-10.2-3.8-2.5-9.8-6-13.3-7.7-3.4-1.7-9.2-4.3-13-5.7-3.7-1.4-10.3-3.2-14.7-4-4.4-0.8-10.7-1.4-14-1.4-3.3 0-8.7 0.7-12 1.6-3.3 0.9-9.2 3.5-13 5.9-3.8 2.4-9.3 5.4-12 6.7l-5 2.3-124.5 0.5c-10.5-3.8-15.8-6.5-18.5-8.5-2.8-1.9-7.7-4.4-11-5.6-4.2-1.5-9-2.3-16-2.5-6.3-0.2-12.4 0.2-16.5 1.1zm242.3 56.2c2.2-0.8 5.4-1.1 7.6-0.8 2 0.3 4.6 1.3 5.7 2.1 1 0.8 2.7 2.4 3.8 3.5 1 1.1 2.2 3 2.7 4.3 0.5 1.2 0.9 3.9 0.9 6 0 2-1.1 5.5-2.4 7.7-1.4 2.3-3.8 4.7-6 5.8-2 0.9-5 1.7-6.6 1.7-1.7 0-4.5-0.6-6.3-1.3-1.7-0.8-4.7-3-6.5-5-2.7-3.1-3.2-4.5-3.2-8.7 0-2.7 0.6-6.2 1.4-7.7 0.8-1.6 2.2-3.6 3.2-4.5 1.1-1 3.6-2.4 5.7-3.1zm-253.5 5c1.5-0.2 6.3-0.2 10.7-0.1 7.1 0.2 8.2 0.5 9.7 2.6 1.4 1.8 1.8 4.9 2.3 27.3l12.5 0.3c10.1 0.2 12.8 0.6 14.3 2 1.5 1.4 1.8 3.4 1.8 12.2 0 8.6-0.3 10.8-1.7 12-1.2 1.1-5.1 1.6-26.9 2.5l-0.5 13.5c-0.5 13.1-0.6 13.5-3 14.7-1.4 0.7-6 1.3-10.5 1.3-4.5 0-9.1-0.6-10.5-1.3-2.4-1.2-2.5-1.6-3.5-28.2l-12.6-0.5c-10.9-0.4-13-0.8-14.8-2.5-1.9-1.8-2.2-3.1-2.2-12 0-8.3 0.3-10.3 1.8-11.7 1.5-1.4 4.2-1.8 27.8-2.3l0.3-13.5c0.2-7.5 0.8-14 1.3-14.7 0.6-0.6 2.3-1.4 3.7-1.6zm107.3 8.1c0.8-0.4 2.1-0.8 2.9-0.8 0.8 0 5.1 2.4 9.6 5.2 4.5 2.9 9.6 6.2 11.5 7.2 1.9 1 12.5 7.3 23.6 14 11.2 6.7 20.7 13 21.2 14.1 0.6 1.3 0.5 2.8-0.2 4.4-0.7 1.3-5.2 4.8-10.2 7.7-5 3-10.6 6.3-12.5 7.5-1.9 1.1-9.2 5.6-16.3 10-7 4.3-12.9 7.9-13.2 7.9-0.3 0-2.9 1.6-5.8 3.6-3.7 2.5-6.1 3.4-11.2 2.9l-0.4-41.4c-0.4-35.1-0.2-41.6 1-42.3zm109.6 22.5c2.4-1.4 5.5-2.3 8.3-2.3 2.5 0 6 0.8 8 1.9 2.1 1.1 4.4 3.6 5.8 6.2 1.2 2.4 2.2 6 2.2 7.9 0.1 2-0.9 5-2.3 7-1.2 1.9-3.8 4.5-5.7 5.8-2.4 1.5-4.9 2.2-8 2.2-2.8 0-5.9-0.9-8.2-2.3-2.1-1.2-4.7-3.8-5.8-5.7-1-1.9-1.9-5.1-2-7 0-1.9 0.9-5.3 2-7.5 1.1-2.4 3.4-4.9 5.7-6.2zm67.8-0.4c1.6-1 4.7-1.9 6.7-1.9 2.1 0 5.3 0.6 7 1.3 1.8 0.8 4.5 2.8 6 4.5 2.4 2.7 2.8 4.1 2.8 9.2 0 3.9-0.6 7-1.8 9-0.9 1.6-3.5 3.9-5.7 5.1-2.6 1.5-5.5 2.2-8.5 2.1-3.3-0.1-5.4-0.9-8-3-1.9-1.6-4.1-4.2-4.9-5.8-0.8-1.6-1.5-4.9-1.5-7.4 0-3.2 0.7-5.5 2.4-7.8 1.3-1.9 3.8-4.3 5.5-5.3zm-34.3 34.1c2-1.2 5.1-2 7.5-2 2.4 0 5.8 0.7 7.5 1.6 1.8 0.8 4.4 2.9 5.8 4.7 2 2.5 2.5 4.2 2.5 9.2 0 4.4-0.5 6.7-2 8.7-1.1 1.5-3.6 3.6-5.5 4.7-1.9 1.1-5.1 2-7 2.1-1.9 0-5.5-1-7.9-2.3-2.4-1.2-5.2-3.5-6.2-5.2-1.1-1.8-1.8-4.9-1.9-8 0-3.3 0.7-6.1 2-8.2 1.1-1.8 3.5-4.2 5.2-5.3z"/><path  d="m931.8 1324h-7.1l11.7-34.4h9.5l11.6 34.4h-7.2l-2.5-7.6h-13.5zm9-28l-4.7 14.6h9.8l-4.8-14.6zm32.9 28h-11.7v-34.4h11.7q4.5 0 7.3 0.5 2.8 0.4 4.4 1.5 1.7 1.1 2.4 3.1 0.8 2 0.9 4.9 0.2 3 0.2 7.2 0 4.2-0.2 7.2-0.1 2.9-0.9 4.9-0.7 1.9-2.4 3.1-1.6 1.1-4.4 1.5-2.8 0.5-7.3 0.5zm-4.6-28.6v22.8h4.2q2.5 0 4-0.1 1.6-0.2 2.5-0.7 1-0.5 1.4-1.7 0.4-1.2 0.5-3.4 0.1-2.1 0.1-5.5 0-3.4-0.1-5.5-0.1-2.2-0.6-3.4-0.4-1.2-1.3-1.7-0.9-0.6-2.5-0.7-1.5-0.1-4-0.1zm44.1 28.6h-9.4l-11-34.4h7.3l8.4 26.8h0.2l8.3-26.8h7.2zm17.6 0h-7.1l11.6-34.4h9.5l11.7 34.4h-7.3l-2.5-7.6h-13.5zm9.1-28l-4.8 14.6h9.8l-4.8-14.6zm28.1 28h-6.8v-34.4h7.3l13.6 21.2h0.2v-21.2h6.8v34.4h-6.7l-14.2-22.4h-0.2zm43.5 0.4q-3.8 0-6.3-0.5-2.6-0.5-4.2-1.6-1.6-1.3-2.4-3.2-0.8-2.1-1.2-5.1-0.2-3-0.2-7.2 0-4.2 0.2-7.1 0.4-3.1 1.2-5.1 0.8-2 2.4-3.2 1.6-1.2 4.2-1.6 2.5-0.6 6.3-0.6 1.5 0 3 0.2 1.6 0 3.1 0.3 1.4 0.1 2.4 0.4v5.4q-1.3-0.2-2.6-0.2-1.2-0.2-2.3-0.2-1.1-0.1-1.8-0.1-2.6 0-4.2 0.2-1.7 0.2-2.7 0.9-0.9 0.6-1.4 1.9-0.5 1.2-0.6 3.4-0.1 2.1-0.1 5.4 0 3.3 0.1 5.5 0.1 2.1 0.6 3.4 0.5 1.3 1.4 1.9 1 0.6 2.7 0.9 1.6 0.1 4.2 0.1 1.6 0 3.5-0.1 2-0.2 3.4-0.4v5.6q-1.1 0.2-2.6 0.4-1.5 0.1-3.1 0.2-1.6 0.1-3 0.1zm38.2-0.4h-23.5v-34.4h23.5v5.8h-16.4v8.4h14v5.7h-14v8.7h16.4zm33.6 0.4q-3.8 0-6.4-0.5-2.6-0.5-4.4-1.6-1.7-1.2-2.6-3.2-1-2-1.4-5-0.3-3.1-0.3-7.3 0-4.2 0.3-7.2 0.4-3 1.4-5 1-2 2.7-3.2 1.7-1.2 4.3-1.6 2.6-0.6 6.4-0.6 1.6 0 3.6 0.2 2.1 0.1 4.1 0.4 2 0.2 3.7 0.5v5.4q-1.8-0.2-3.4-0.3-1.7-0.2-3-0.3-1.4-0.1-2.3-0.1-2.8 0-4.7 0.2-1.9 0.1-3.2 0.6-1.1 0.6-1.8 1.9-0.6 1.2-0.9 3.4-0.2 2.2-0.2 5.7 0 3.1 0.2 5.3 0.1 2 0.6 3.4 0.5 1.3 1.4 2.1 1 0.7 2.4 0.9 1.5 0.3 3.7 0.3 0.8 0 1.7 0 0.8-0.1 1.6-0.1 0.8-0.1 1.3-0.1v-8.6h-5.8v-5.5h12.5v18.8q-1.7 0.4-3.8 0.6-2.1 0.2-4.1 0.4-2 0.1-3.6 0.1zm22.6-0.4h-7.1l11.6-34.4h9.6l11.6 34.4h-7.3l-2.5-7.6h-13.4zm9-28l-4.8 14.6h9.8l-4.7-14.6zm28.8 28h-6.6v-34.4h9.8l8.5 22.7h0.2l8.5-22.7h9.7v34.4h-6.8v-24h-0.3l-8.9 24h-4.9l-8.9-24h-0.3zm61.9 0h-23.5v-34.4h23.5v5.8h-16.4v8.4h14.1v5.8h-14.1v8.7h16.4zm25.6 0h-7.1v-34.4h7.1zm15.7 0h-6.8v-34.4h7.4l13.5 21.2h0.2v-21.2h6.8v34.4h-6.7l-14.2-22.4h-0.2zm43.2 0h-7.1v-28.4h-10v-6h27.1v6h-10zm38.5 0h-23.5v-34.4h23.5v5.8h-16.4v8.4h14.1v5.8h-14.1v8.6h16.4zm20.6 0.4q-3.8 0-6.4-0.5-2.6-0.5-4.4-1.6-1.6-1.2-2.6-3.2-0.9-2-1.4-5-0.3-3.1-0.3-7.3 0-4.1 0.3-7.2 0.5-3 1.4-5 1-2 2.7-3.2 1.7-1.1 4.3-1.6 2.7-0.6 6.4-0.6 1.7 0 3.6 0.2 2.1 0.1 4.1 0.4 2 0.2 3.7 0.6v5.4q-1.7-0.3-3.4-0.4-1.7-0.2-3-0.3-1.4-0.1-2.3-0.1-2.8 0-4.7 0.2-1.9 0.1-3.2 0.6-1.1 0.6-1.8 1.9-0.6 1.2-0.9 3.4-0.1 2.3-0.1 5.7 0 3.1 0.1 5.3 0.2 2.1 0.6 3.4 0.6 1.4 1.4 2.1 1 0.7 2.4 0.9 1.6 0.3 3.7 0.3 0.8 0 1.7 0 0.9 0 1.6-0.1 0.8-0.1 1.4-0.1v-8.5h-5.8v-5.6h12.4v18.9q-1.7 0.3-3.8 0.5-2 0.2-4.1 0.4-2 0.1-3.6 0.1zm27-0.4h-7.1v-34.4h16.5q3.3 0 5.3 0.8 2.1 0.7 3.1 2.2 1.1 1.4 1.4 3.4 0.4 2 0.4 4.5 0 1.8-0.3 3.8-0.3 2-1.4 3.7-1 1.7-3.1 2.5l5.4 13.5h-7.4l-5.3-13.8 1.8 1q-0.4 0.2-0.9 0.2-0.4 0-1 0h-7.4zm0-28.6v10.3h6.5q2.1 0 3.3-0.2 1.2-0.3 1.8-0.9 0.6-0.6 0.7-1.5 0.2-1 0.2-2.6 0-1.5-0.2-2.5-0.1-1-0.7-1.6-0.5-0.5-1.8-0.8-1.2-0.2-3.3-0.2zm29.7 28.6h-7.1l11.6-34.4h9.5l11.7 34.4h-7.3l-2.5-7.6h-13.5zm9-27.9l-4.7 14.5h9.8l-4.8-14.5zm33.3 27.9h-7.1v-28.4h-10v-6h27v6h-9.9zm23.1 0h-7.1v-34.4h7.1zm21.4 0.4q-4.2 0-6.9-0.5-2.7-0.5-4.3-1.6-1.6-1.2-2.3-3.2-0.7-2.1-0.9-5.1-0.2-3-0.2-7.2 0-4.2 0.2-7.1 0.2-3.1 0.9-5.1 0.7-2 2.3-3.2 1.6-1.2 4.3-1.6 2.7-0.6 6.9-0.6 4.2 0 6.9 0.6 2.8 0.4 4.3 1.6 1.6 1.2 2.3 3.2 0.7 2 0.9 5.1 0.2 2.9 0.2 7.1 0 4.2-0.2 7.2-0.2 3-0.9 5.1-0.7 2-2.3 3.2-1.5 1.1-4.3 1.6-2.7 0.5-6.9 0.5zm0-5.8q2.2 0 3.6-0.1 1.4-0.2 2.2-0.7 0.7-0.6 1.1-1.8 0.4-1.3 0.5-3.5 0.1-2.2 0.1-5.7 0-3.5-0.1-5.6-0.1-2.3-0.5-3.5-0.4-1.3-1.1-1.8-0.8-0.6-2.2-0.7-1.4-0.2-3.6-0.2-2.1 0-3.5 0.2-1.4 0.1-2.2 0.7-0.8 0.5-1.2 1.8-0.4 1.2-0.5 3.5 0 2.1 0 5.6 0 3.5 0 5.7 0.1 2.2 0.5 3.5 0.4 1.2 1.2 1.8 0.8 0.5 2.2 0.7 1.4 0.1 3.5 0.1zm28.3 5.4h-6.8v-34.4h7.3l13.6 21.2h0.2v-21.2h6.8v34.4h-6.8l-14.1-22.3h-0.2zm54.3 0.4q-2 0-4.2-0.1-2.3-0.1-4.4-0.3-2.2-0.2-4-0.4v-5.6q1.8 0.2 3.8 0.3 1.9 0.1 3.7 0.2 1.7 0.1 2.9 0.1 2.6 0 4-0.2 1.4-0.3 2.1-0.7 0.5-0.4 0.7-0.9 0.2-0.5 0.3-1.1 0-0.7 0-1.6 0-1.1-0.1-1.8-0.1-0.8-0.4-1.2-0.3-0.4-1-0.6-0.6-0.3-1.7-0.4l-7.7-0.9q-2.3-0.3-3.8-1-1.5-0.8-2.3-2-0.8-1.3-1.2-3-0.3-1.7-0.3-3.9 0-3.4 1-5.4 0.9-2 2.6-3 1.8-1 4.1-1.4 2.4-0.3 5.1-0.3 2 0 4.1 0.1 2.1 0.1 3.9 0.4 1.9 0.1 3.2 0.4v5.5q-1.3-0.2-2.9-0.3-1.7-0.2-3.5-0.2-1.8-0.1-3.4-0.1-2.3 0-3.7 0.2-1.4 0.1-2.1 0.6-0.9 0.4-1.1 1.2-0.2 0.8-0.2 2 0 1.5 0.2 2.3 0.3 0.8 1 1.1 0.8 0.3 2.3 0.5l7.8 0.9q1.3 0.1 2.5 0.5 1.2 0.3 2.2 1.1 0.9 0.7 1.6 2.1 0.3 0.7 0.5 1.6 0.2 0.9 0.3 2.1 0.2 1.1 0.2 2.5 0 2.9-0.6 4.9-0.6 1.9-1.7 3.1-1 1.1-2.5 1.7-1.5 0.6-3.4 0.8-1.8 0.2-3.9 0.2zm33.9-0.4h-7.1v-12.2l-11.9-22.2h7.5l7.9 15.3h0.3l7.9-15.3h7.2l-11.8 22.2zm27.1 0.4q-2 0-4.2-0.1-2.3-0.1-4.4-0.3-2.2-0.2-4-0.4v-5.6q1.8 0.2 3.8 0.3 1.9 0.2 3.7 0.2 1.7 0.1 2.9 0.1 2.6 0 4-0.2 1.4-0.2 2.1-0.7 0.5-0.4 0.7-0.9 0.2-0.5 0.3-1.1 0-0.7 0-1.6 0-1.1-0.1-1.8-0.1-0.8-0.4-1.2-0.3-0.4-1-0.6-0.6-0.3-1.7-0.4l-7.7-0.9q-2.3-0.3-3.8-1-1.5-0.8-2.3-2-0.8-1.3-1.2-3-0.3-1.7-0.3-3.8 0-3.4 1-5.5 0.9-2 2.6-3 1.8-1 4.1-1.4 2.4-0.3 5.1-0.3 2 0 4.1 0.1 2.1 0.2 3.9 0.4 1.9 0.2 3.2 0.5v5.4q-1.3-0.2-2.9-0.3-1.7-0.2-3.5-0.2-1.8-0.1-3.4-0.1-2.3 0-3.7 0.2-1.4 0.1-2.1 0.6-0.9 0.4-1.1 1.2-0.2 0.9-0.2 2.1 0 1.5 0.2 2.2 0.3 0.8 1 1.1 0.8 0.3 2.3 0.5l7.8 0.9q1.3 0.1 2.5 0.5 1.2 0.3 2.2 1.1 0.9 0.7 1.6 2.1 0.3 0.7 0.5 1.6 0.2 0.9 0.3 2.1 0.2 1.1 0.2 2.6 0 2.8-0.6 4.8-0.6 1.9-1.7 3.1-1 1.1-2.5 1.7-1.5 0.6-3.4 0.8-1.8 0.2-3.9 0.2zm32.9-0.4h-7.1v-28.4h-10v-6h27v6h-9.9zm38.5 0h-23.5v-34.4h23.5v5.8h-16.4v8.4h14v5.7h-14v8.7h16.4zm14.1 0h-6.6v-34.4h9.7l8.5 22.7h0.3l8.5-22.7h9.7v34.4h-6.9v-23.9h-0.2l-9 23.9h-4.9l-8.9-23.9h-0.2z"/></svg>