<svg version="1.2" xmlns="http://www.w3.org/2000/svg" viewBox="0 0 623 452" width="623" height="452">
  <path 
    fill-rule="evenodd" 
    d="m237.7 11.1c-4.3 6-8.7 11.7-9.6 12.6-0.9 0.9-4.4 5.4-7.7 10.1-3.3 4.7-6.8 9.5-7.8 10.6-1 1.1-3.1 4-4.8 6.5-1.6 2.5-3.2 4.7-3.5 5-0.3 0.3-3.2 4.4-6.4 9.3-3.1 4.8-6.1 8.7-6.7 8.7-0.6 0-7.5 9.8-15.4 21.8-7.9 12-19.6 30.6-26.1 41.3-6.6 10.7-17.2 29-23.6 40.6-6.4 11.6-12.3 22.6-13.1 24.5l-1.4 3.5c-1-4.7-1.3-13.2-1.4-22-0.1-8.8-0.6-18-1.2-20.5-0.6-2.5-1.8-5.3-2.7-6.5-0.9-1-3.5-2.7-5.7-3.7-2.2-1.1-5.2-1.9-6.8-1.9-2.1 0-3.3 0.9-5.4 4.2-1.5 2.5-5.1 7.6-7.9 11.4-2.9 3.8-9.1 12.8-14 20l-8.8 13c1-15.5 1.6-27 1.9-35.5 0.6-14.7 0.6-15.9-1.5-19.9-1.1-2.3-3.6-5-5.4-6.1-1.7-1-4.8-2.5-6.9-3.2-2.9-1.1-3.9-1.2-5.2-0.2-1.1 0.9-1.4 2.2-1 4.5 0.3 1.8-0.1 17.8-1 35.6-0.9 17.8-1.6 37.1-1.6 43.1 0 6 0.5 12.6 1.1 14.8 0.7 2.2 2.4 5.1 3.8 6.5 1.5 1.4 4.8 3.5 7.4 4.7 2.9 1.4 5.3 2 6.4 1.5 0.9-0.4 3-3.6 4.6-7.2 1.6-3.6 6-11.7 9.7-18 3.8-6.4 9.8-16 13.2-21.3l6.4-9.7c2 26 3.2 36.9 4 41 1.3 6.6 1.9 7.9 5.3 11 2.2 1.9 6.3 4.2 9.3 5.2 3 0.9 6 1.4 6.8 1 0.7-0.4 3.2-4.8 5.5-9.7 2.2-4.9 9.3-19.6 15.7-32.6 6.4-12.9 16.1-31.8 21.5-42 5.4-10.3 14-26 19-35.1 5.1-9.1 11.8-21.5 14.9-27.5 3.1-6.2 5.6-11.8 5.7-12.6 0-0.8 1.5-4 3.3-7 2-3 5.7-10 8.4-15.5 2.7-5.5 8.7-16.1 13.3-23.6 4.7-7.6 7.6-13.2 6.6-12.8-0.9 0.4 1.3-3.4 4.8-8.5 3.6-5.1 6.5-9.5 6.6-10 0-0.4 1.5-2.7 3.2-5.2 1.8-2.4 3-4.6 2.7-4.9-0.3-0.2-4.1 4.6-8.5 10.7zm365.3 222.1c-3.1 0.4-9.9 2.4-15.1 4.4-5.2 2-14.7 6.4-21 9.7-6.3 3.3-16.5 9.3-22.6 13.4-6.1 4-14.4 10.2-18.5 13.8-4.1 3.5-8.9 8.2-10.7 10.4-1.8 2.1-3.7 5.4-4.3 7.2-0.6 1.9-0.7 4.3-0.1 6 0.4 1.5 1.8 4.7 3.1 7.2 1.2 2.5 3.2 5.5 4.4 6.8 1.1 1.3 4.3 3 7.1 3.7 3.9 1.2 10.6 1.4 29.6 1.2 13.5-0.1 25.1 0.1 25.7 0.6 0.9 0.5 0.2 1.9-2.5 4.8-2 2.2-7.8 7.5-12.7 11.5-5 4.1-13.1 10.6-18 14.4-5.1 3.9-11 8.6-13.4 10.4-2.4 1.7-6.2 4.8-8.5 6.7-2.4 1.9-6.1 5-8.2 6.8-2.2 1.8-4.5 3.6-5.1 4-0.5 0.4-1.7 1.7-2.5 2.8-0.8 1.2-4.9 4.7-9.2 7.9-4.2 3.1-7.6 5.8-7.5 6.1 0.2 0.3 3.4-1.5 7.3-4.1 3.8-2.6 8-5.8 9.2-6.9 1.3-1.2 2.5-1.9 2.8-1.6 0.3 0.3-2.5 3-6.2 6.1-3.7 3-7.7 6.3-8.8 7.3-1.1 1.1-5.8 4.9-10.6 8.5-4.7 3.6-9.9 7.9-11.7 9.6-1.8 1.7-3 3.3-2.8 3.6 0.2 0.3-4.9 4.6-11.5 9.5-6.6 5-12 9.6-12 10.3 0 0.6 4.2-1.6 9.2-5 5.1-3.5 9.9-6.9 10.6-7.5 0.7-0.7 2-1.3 2.8-1.3 0.8 0 1.1-0.5 0.7-1.2q-0.8-1.3 0.5-0.5c0.7 0.4 3.8-1.1 7.7-3.8 3.6-2.5 9.6-6.6 13.3-9.2 3.7-2.7 6.3-4.1 5.8-3.3-0.5 0.8 1.2 0 3.8-1.7 2.6-1.8 4.9-3.7 5.2-4.3 0.3-0.5 1.2-1 2-1 0.8 0 3.9-1.5 6.7-3.4 2.9-1.8 8-5 11.3-7.2 3.3-2.1 7.8-4.9 10-6.4 2.2-1.4 4.2-2.9 4.5-3.2 0.3-0.3 6.2-4.3 13.1-8.9 6.9-4.6 16.5-11.4 21.5-15.1 4.9-3.7 11.9-9.8 15.5-13.5 4.4-4.7 6.9-8.2 7.7-11 0.8-3.2 0.7-5-0.6-9.1-0.9-2.7-2.8-6.8-4.3-9-1.5-2.1-4.6-5-7-6.3-2.4-1.4-7-3.1-10.3-3.8-3.7-0.7-14.1-1.3-27-1.3l-21.1-0.1c8.7-8.1 14.1-12.4 17.7-14.8 3.5-2.4 10.4-6.9 15.4-9.9 4.9-3.1 12.6-7.3 17-9.5 4.4-2.2 10.2-4.9 13-6l5-2c-2.5 3.6-3.7 5.7-4.3 7-0.7 1.2-1.7 3.1-2.2 4.2-0.7 1.5-0.7 2.1 0.2 2.3 1 0.3 1 0.9 0 3.1-0.6 1.5-0.9 3.4-0.5 4.2 0.7 1.3 1 1.3 2.7-0.2 1.9-1.7 1.9-1.7 1.2 0.2-0.7 1.8-0.6 1.9 0.9 0.5 0.9-0.8 1.6-1.2 1.5-0.7 0 0.4-0.5 1.6-1 2.7-0.6 1.1-0.7 2-0.3 2.1 0.5 0 1.6 0.2 2.5 0.5 1.1 0.2 1.7-0.1 1.5-0.8-0.1-0.8 0.6-1.2 1.8-1 1.2 0.1 2.9-0.5 4-1.5 1-1 4.2-5.2 7.1-9.4 2.9-4.1 6.2-9.4 7.4-11.7 1.1-2.4 2.1-5.8 2.1-7.5 0-1.9-1.2-5.2-2.8-7.8-1.6-2.5-4.1-5.7-5.6-7.2-1.4-1.6-3.4-2.7-4.4-2.7-0.9 0.1-4.2 0.5-7.2 0.9zm-116.3-137.1c-4.7 0.4-16.6 1-26.5 1.2-9.9 0.3-21.4 0.7-25.5 1-4.2 0.3-8.7 0.8-10.1 1.2-1.4 0.3-7 1-12.5 1.5-5.5 0.5-17.2 2.1-26 3.5-8.8 1.5-20.4 3.5-25.6 4.5-5.2 1-12.9 2.6-17 3.5-4.3 1-7.7 1.3-8 0.8-0.3-0.5-2.1-1.7-4-2.6-1.9-1-4-1.7-4.5-1.7-0.6 0-1.9 1.9-3.1 4.2-1.9 3.9-2.7 4.4-7.6 5.7-3 0.7-9.2 2.4-13.9 3.6-4.7 1.3-11.2 2.7-14.5 3.2-3.3 0.4-7.4 0.8-9 0.8-1.7 0-5.4 0.4-8.3 0.8-3.1 0.4-5.2 1.2-5.2 2 0 0.9-0.2 0.9-0.8-0.1-0.6-1.1-2.6-0.9-10.8 0.7-5.5 1.2-10.2 1.9-10.5 1.7-0.3-0.2 0.8-0.7 2.5-1.1 2.3-0.5 2.6-0.8 1.5-1.5-0.8-0.4-3.1-0.6-5-0.3-1.9 0.2-11.2 2-20.5 3.8-9.4 1.9-17.7 3.7-18.5 4-0.9 0.4-2.2-0.3-3.2-1.7-0.8-1.3-3.2-3.1-5.2-4-2-1-4.4-1.6-5.2-1.3-0.8 0.3-1.5 1.2-1.5 2 0 0.8-0.9 3.3-2 5.5-1.4 2.8-2.8 4.2-4.8 4.6-1.5 0.3-4.3 0.9-6.2 1.4-2.7 0.7-4.1 1.9-6.2 5.7-1.5 2.6-2.8 5.6-2.8 6.6 0 0.9 1.5 3.3 3.4 5.1l3.5 3.2-6.9 14.5c-7.4 0.9-10.2 1.5-11 1.9-0.8 0.4-1.6 1.9-1.8 3.2-0.2 1.3-0.1 3.4 0.2 4.7 0.3 1.2 1.7 3.6 3.1 5.2l2.5 3c-9.3 21.8-9.6 22.2-13 22.8-2 0.3-4.4 1.3-5.4 2.2-1 0.9-1.8 2.5-1.8 3.6 0.1 1.1 1.6 3.9 3.6 6.3 1.9 2.3 4 4.2 4.6 4.2 0.5 0 2.6 1.6 4.5 3.5 1.9 1.9 3.9 3.5 4.5 3.5 0.5 0 1.9-1 3-2.2 1.1-1.3 2-2.6 2-3 0-0.5 1.9-1.8 4.2-2.9 2.4-1.2 10.1-4.4 17.3-7.1 7.1-2.8 13.2-5.4 13.5-5.8 0.3-0.4 2.7-1.5 5.5-2.5 2.8-0.9 5.9-2.3 6.8-3.1 1-0.8 2.2-1.3 2.8-0.9 0.5 0.3 1.6-0.2 2.2-1.1 0.7-0.9 1.7-1.6 2.3-1.5 0.5 0 2.6-0.7 4.5-1.5 2.9-1.3 3.1-1.5 0.7-1-1.5 0.3-3.9 0.8-5.5 1.1-2 0.4-2.3 0.3-1.2-0.5 0.8-0.5 6.9-2.6 13.5-4.6 6.6-2 12.2-4 12.5-4.5 0.3-0.5 5.4-2.1 11.5-3.6 6-1.5 11.5-3.1 12.1-3.7q1-1-1.5-0.3c-1.4 0.3-6.4 1.3-11.1 2.1-4.7 0.9-11 2.2-14 3-3 0.8-6 1.4-6.5 1.4-0.6 0-0.1-0.4 1-0.9 1.4-0.6 0.4-0.9-3.5-0.8-3 0-9.6 0.7-14.5 1.4-5 0.8-13.6 2.5-19.1 3.9-5.5 1.4-12.3 3.3-15 4.1-2.8 0.9-5.1 1.4-5.2 1.2-0.2-0.2 1.2-3.4 3.1-7.3l3.3-7c16.1-3.7 23.9-5.2 27.5-5.9 3.7-0.6 7-1.4 7.5-1.8 0.4-0.5 0.1-0.8-0.7-0.8-0.9 0-0.7-0.5 0.6-1.2 1.9-1.2 1.9-1.2-0.5-1.8-2.2-0.6-1.9-0.8 1.7-1.3 3.2-0.5 4.2-1.1 3.8-2.2-0.4-1.1 0.6-1.6 4.2-2.1 2.7-0.4 5.5-1 6.3-1.4 0.9-0.5-1.8-1.1-6.5-1.5-4.4-0.4-9.1-0.4-10.5 0-1.9 0.5-2.1 0.4-1-0.4 1.3-0.8 1.2-1.1-0.5-1.7-1.1-0.4-6.6-0.4-12.4-0.1l-10.2 0.7c1.3-3.5 2.9-6.7 4.2-9.5l2.5-5c17-5.3 24.4-7.6 27.4-8.5 3-1 8.3-2.7 11.7-3.7 3.5-1 6.3-2.2 6.3-2.6 0-0.5-1.5-0.4-3.3 0.2-1.7 0.5-3.4 0.8-3.7 0.5-0.3-0.2 1.5-1 4-1.6 2.5-0.7 4.9-1.6 5.5-2.1 0.6-0.5-0.5-0.6-2.5-0.3-1.9 0.3-0.6-0.4 3-1.5 3.6-1.1 7.4-2.6 8.5-3.4 1.1-0.7 3.6-1.6 5.6-1.9 2.6-0.5 3-0.4 1.7 0.3-0.9 0.6-1.7 1.8-1.7 2.8 0 0.9 0.6 3.3 1.4 5.2 0.7 1.9 3.1 4.7 5.2 6.2 2.2 1.5 5.1 2.8 6.6 2.8 1.6 0 8.3-1.8 15-3.9 6.8-2.1 14.3-4.4 16.8-5.1 2.5-0.7 5.1-1.5 5.8-1.9 1-0.4 0.7 1-0.8 4.4-1.2 2.8-2.8 6.4-3.5 8-0.7 1.7-4.3 10.3-7.8 19.1-3.5 8.8-8.6 22.8-11.2 31-2.8 8.9-4.4 16-4.1 17.4 0.3 1.2 0.1 2.2-0.4 2.2-0.6 0-0.8 0.3-0.5 0.8 0.2 0.4-1.4 6.8-3.6 14.2-2.2 7.4-3.8 14-3.6 14.5 0.2 0.6 1.7-3.2 3.5-8.2 1.9-5.7 3.7-9.2 4.4-9 0.7 0.1 3.5-4.2 6.3-9.5 2.7-5.4 5.1-9.6 5.2-9.3 0.2 0.3-0.2 1.4-0.7 2.5-0.6 1.1-0.7 2-0.3 2 0.5 0 1.8-1.6 3-3.5 1.3-1.9 2.3-4 2.3-4.6 0-0.5 0.3-1.1 0.7-1.2 0.5-0.2 2.3-3.2 4-6.8 1.8-3.6 4.8-10.1 6.6-14.5 1.9-4.4 4.6-10.7 6.1-14 1.6-3.3 6.3-14.1 10.6-24.1l7.7-18c6.9-1.9 13.4-3.5 19-4.7 8.4-1.9 10-2.1 9.4-0.8-0.3 0.8-1.5 3.5-2.7 6-1.1 2.5-3.9 8.3-6 13-2.2 4.7-5.3 11.5-6.8 15.1-1.6 3.6-3.1 6.8-3.4 7.2-0.3 0.4-3.8 1.7-7.6 2.8-3.9 1.1-7.3 2.6-7.7 3.3-0.5 0.6-0.5 2.6-0.2 4.2 0.4 1.7 2.3 4.4 4.2 6 2.5 2.2 3.3 3.6 2.9 5-0.3 1.1-1.7 5.4-3.2 9.5-1.5 4.1-2.8 9.6-3.1 12.3-0.2 2.7-1.3 7.4-2.4 10.6-1.1 3.1-2 6.4-2 7.2-0.1 0.9 1.4 0 3.5-2.2 1.9-2.1 3.5-4.2 3.5-4.8 0-0.5 1.1-2.2 2.5-3.7 1.4-1.6 3-3.4 3.7-4.2 0.7-0.8 1.9-2.5 2.6-3.6 1.3-2.1 1.3-2.1 0.8 0.2-0.4 1.4-0.1 2.2 0.6 2.2 0.7 0 1.9-1.6 2.5-3.5 0.7-1.9 1.7-3.5 2.3-3.5 0.5 0 1-0.6 1-1.2 0-0.7 0.9-3.1 2-5.3 1-2.2 3-6.5 4.3-9.5l2.3-5.5c23.3-5.1 30.1-6.4 30.2-6.1 0.2 0.4-1 4.1-2.6 8.4-1.6 4.2-4.1 11.3-5.5 15.7-1.5 4.4-2.6 8.5-2.6 9 0 0.6 0.6 0.1 1.5-1 1.2-1.7 1.2-1.3-0.1 2-0.9 2.3-4.2 11-7.1 19.4-3 8.3-5.1 15.2-4.7 15.2 0.5 0 2.3-3.7 4.1-8.2 1.7-4.6 4.3-9.3 5.8-10.5 1.4-1.3 2.9-3.4 3.5-4.8 0.5-1.4 1.4-2.3 2-2 0.5 0.3 2.1-1.9 3.3-4.7 1.3-2.9 3-7.2 3.7-9.4 0.7-2.2 1.5-3.4 1.7-2.7 0.1 0.6-0.2 2.1-0.7 3.2q-1 2 0 2c0.5 0 1.9-1.9 3.1-4.2 1.7-3.7 1.9-3.9 1.5-1.3q-0.6 3.2 2.4-3c1.6-3.3 5.6-11.7 8.9-18.7 3.8-8 6.7-12.8 7.6-12.8 0.8 0 1.5-0.6 1.5-1.2 0-0.7 0.3-1 0.7-0.6 0.4 0.4 2 0.3 3.5-0.3 2.4-0.8 2.9-0.6 3.4 1.4 0.4 1.2 1.7 3.7 3 5.5l2.4 3.2c-9.3 20.6-9.6 21-13.5 22.1-2.2 0.6-4.7 1.4-5.5 1.8-0.8 0.5-1.7 1.9-1.8 3.2-0.2 1.3 0.4 3.9 1.5 5.7 1 1.8 2 3.4 2.3 3.3 0.3 0 2.7 2.1 5.5 4.6 2.7 2.4 5.8 4.5 6.7 4.4 1 0 2.9-1.5 4.2-3.2 1.8-2.5 4.8-4.3 12.8-7.6 5.7-2.3 13.7-5.1 17.6-6.2 4-1.2 7.3-2.4 7.3-2.8 0-0.5 2.7-1.6 6-2.5 3.3-1 6-2.2 6-2.8 0-0.6 1.2-0.8 2.7-0.5 2 0.4 2.4 0.3 1.3-0.4-1.1-0.6-0.1-1.2 4-2.1 3-0.7 6.3-1.7 7.1-2.2 0.9-0.5-0.3-0.7-3.6-0.3-4.1 0.4-4.6 0.3-2.5-0.5 1.4-0.6 7.1-2.2 12.6-3.6 5.5-1.4 10.2-2.9 10.5-3.4 0.3-0.4 5.4-1.8 11.5-3 6-1.3 11.7-2.7 12.5-3.2q1.5-0.9-2-0.4c-1.9 0.3-5.5 0.8-8 1.2-2.5 0.3-8.1 1.2-12.5 2-4.4 0.8-8.2 1.1-8.5 0.6-0.3-0.4-2.3-0.8-4.5-0.8-2.2-0.1-8.4 0.3-13.6 0.8-5.2 0.5-16.3 2.7-24.5 4.8-8.3 2.1-15.9 4.2-16.9 4.6-1.7 0.8-1.7 0.5 0.5-4.1 1.3-2.7 3.1-6.3 4-8 1.4-2.6 2.4-3.2 8.5-4.3 3.8-0.7 9.1-1.9 11.9-2.7 2.7-0.7 7.5-1.6 10.5-2 3.6-0.4 5-1 4-1.5-1.3-0.6-1.2-0.9 0.5-1.9 1.8-0.9 1.7-1.1-1-1.2-2.1-0.1-1.4-0.4 2.2-1 2.9-0.5 5.3-1.3 5.3-1.9 0-0.5-0.8-1.1-1.8-1.3-0.9-0.2 0.8-0.7 3.9-1.1 3-0.5 6.4-1.2 7.5-1.6 1.3-0.5-1.6-1.1-8.2-1.6-5.7-0.5-10-1.2-9.8-1.7 0.2-0.5-0.4-1.1-1.4-1.5-0.9-0.3-6-0.1-11.2 0.5-5.2 0.6-9.6 0.9-9.8 0.6-0.1-0.2 1.4-3.5 3.3-7.4 2.9-5.8 4-7.1 6.7-7.9 1.8-0.5 5.5-1.4 8.3-2.1 2.7-0.7 9.3-2.5 14.6-4.1 5.2-1.5 12.2-3.5 15.5-4.4 4.3-1.2 5.6-1.9 4.5-2.5-1.1-0.6-0.5-1 2.2-1.4 2.1-0.3 3.8-0.9 3.8-1.3 0-0.5-1.3-0.6-2.8-0.4-1.5 0.2-2.5 0.1-2.2-0.2 0.3-0.3 3.6-1.4 7.3-2.4 3.7-1 6.7-2.2 6.5-2.7-0.2-0.6 5.1-2 11.7-3.3 6.6-1.3 14.8-2.8 18.1-3.4 3.3-0.5 6.4-1.4 7-2 0.7-0.7 0.1-0.9-1.8-0.5-1.5 0.3-3.8 0.8-5.2 1.1-1.8 0.4-2.3 0.2-1.8-0.7 0.6-0.9-0.1-1-2.7-0.5-1.9 0.5-7.4 1.3-12.1 1.8-4.7 0.6-10.6 1.1-13.2 1.2-2.7 0.1-4.9-0.2-5-0.6-0.2-0.4-6.4 0.1-13.8 1.3-7.4 1.1-18.8 3.1-25.1 4.3l-11.5 2.3c-4.7-4.8-7.3-6.4-8.8-6.6-2.6-0.5-3.1 0-5.8 5.3-2.9 5.6-3 5.7-8.7 6.8-3.1 0.6-7.2 1.4-9.1 1.7-1.8 0.4-3.8 1.4-4.4 2.2-0.5 0.9-0.6 3.2-0.2 5.5 0.5 2.8 1.9 5.2 4.6 7.8l3.9 3.7-6.2 12.6c-13.5-0.6-17.5-0.8-17.6-0.9-0.1 0 3.2-7.4 7.4-16.2 6.6-13.9 7.8-16.7 7.8-21.5 0-3.5-0.6-6.5-1.8-8.2-1.2-2-1.4-2.8-0.5-2.9 0.7-0.1 0.2-0.5-1.2-1-2.3-0.8-2.3-0.8 0.7-0.6 1.9 0.1 3.4 0 3.4-0.3 0-0.3 6.6-1.5 14.7-2.8 8.2-1.3 16.6-2.7 18.8-3.2 2.2-0.4 3.3-0.9 2.5-1-0.8-0.1 4.8-1.2 12.5-2.2 7.8-1 14.3-2.1 14.6-2.4 0.3-0.3 0.3-0.6 0-0.8-0.3-0.1-4.3 0.1-9.1 0.5zm-74.1 18.5c3-0.7 5.6-1.4 5.6-1.5 0.1 0-4.2 8.8-9.6 19.7-5.4 10.8-10.5 21.4-11.4 23.5-1 2.5-2.4 3.9-3.9 4.2-1.2 0.2-5.6 0.9-9.7 1.6-4.1 0.6-9.9 1.6-12.6 2.1-2.8 0.6-5.1 0.8-5.3 0.5-0.1-0.3 2.6-6.6 5.9-13.9 3.5-7.3 6.5-15.3 6.8-17.8 0.4-3.1 0.1-5.3-2.5-9.5l15.6-3.8c8.6-2 18.1-4.3 21.1-5.1zm53.6 135.5c-6.1 1.5-11.9 3.2-13 3.8-1.1 0.6-3.6 1.3-5.5 1.7-1.9 0.4-7.1 1.1-11.5 1.6-4.4 0.5-9.6 1.2-11.5 1.7-2.7 0.7-3.2 0.5-3-0.7 0.3-1-0.5-1.6-2.1-1.8-1.4-0.1-11.2 1.6-21.8 3.8l-19.2 4c-5.7-5.6-8.1-7-9.6-7-2.1 0-2.9 1-5 5.5-2.4 5.3-2.7 5.6-8.3 7.1-3.1 0.9-7.3 1.9-9.2 2.2-1.9 0.3-4.1 1.1-4.8 1.7-0.7 0.6-1.3 2.2-1.2 3.6 0 1.4 1.2 4.4 2.5 6.8 1.4 2.3 3.4 4.9 4.5 5.7 2 1.5 2 1.6-1.4 8.3-1.8 3.7-3.9 7-4.7 7.3-0.8 0.4-3.5 1-6.2 1.3-3.3 0.4-5 1.2-5.7 2.6-0.6 1.1-0.7 3.2-0.3 4.8 0.3 1.5 1.9 4.2 3.5 6 1.5 1.7 2.7 3.6 2.5 4-0.1 0.5-2.2 5.5-4.7 11.1-2.5 5.7-5.2 10.5-6 10.7-0.8 0.3-2.6 0.7-4 1-1.4 0.3-3.3 1.3-4.4 2.3-1 0.9-1.8 2.7-1.7 4 0 1.2 1.7 3.9 3.9 6 2.1 2 5.6 5.2 7.7 7 2.2 1.8 4.8 3.2 5.7 3.2 1 0 2.8-1.4 4-3.1 1.3-1.7 4.1-4 6.3-5.1 2.2-1.2 8-3.6 13-5.5 4.9-2 10.6-4 12.5-4.5 1.9-0.5 3.9-1.5 4.5-2.2 0.5-0.7 2.9-1.9 5.1-2.6 2.2-0.7 5-1.8 6.2-2.6 1.3-0.8 3.2-1.2 4.3-0.9 1.2 0.3 1.9 0 1.7-0.6-0.1-0.6 2-2 4.8-3 4.5-1.7 4.6-1.9 1.5-1.5-1.9 0.2-4.4 0.7-5.5 1.1-1.6 0.6-1.7 0.5-0.5-0.4 0.8-0.6 5.1-2.2 9.5-3.5 4.4-1.4 9.9-3 12.2-3.5 2.4-0.6 4.1-1.5 3.8-2.1-0.3-0.6 0.1-1 0.7-0.9 0.7 0 2.1-0.3 3.1-0.8 0.9-0.5 1.9-0.6 2.2-0.1 0.3 0.4-1.1 4.7-3.2 9.6-2 4.8-4.9 12.2-6.5 16.5-1.5 4.2-2.8 7.9-2.8 8.2 0 0.3 0.4 0.3 1 0 0.5-0.3 0 1.9-1.1 4.8-1.2 2.8-3.2 8.1-4.6 11.7-1.3 3.6-2.1 7.2-1.8 8.1 0.3 1 0.9 1.1 1.4 0.5 0.5-0.5 2.3-4.6 4-8.8 2.6-6.6 3.4-7.7 5.1-7.3 1.6 0.4 2.5-0.5 4.5-5 1.4-3 3-5.8 3.7-6.2 0.9-0.6 0.9-0.1 0.3 1.7-0.4 1.4-0.9 3.1-1.1 3.8-0.2 0.6-0.2 1.2 0.1 1.2 0.3 0 1.8-2.5 3.5-5.5 1.6-3 3.3-5.5 3.7-5.5 0.5 0 3.9-6 7.6-13.5 3.8-7.4 7.1-13.6 7.5-13.6 0.5 0 4.8 1.8 9.8 4 4.9 2.1 12.8 5.8 17.5 8.1 4.7 2.4 9.7 4.5 11.2 4.6 1.6 0.2 5.6 1.8 9.1 3.6 3.5 1.7 7.5 3.2 9 3.2 2.1 0.1 2.4-0.2 1.5-1.3-1-1.2-0.9-1.3 0.3-0.6 0.8 0.4 2.6 0.9 4 1 1.4 0.2 4.1 1.1 6 2 3.4 1.8 3.5 1.8 2 0-1.3-1.7-1.3-1.8 0-1.3 0.8 0.3 4.1 1.8 7.2 3.2 3.2 1.4 5.8 2.2 5.8 1.6 0-0.5-2.3-2.2-5-3.7-2.8-1.6-5.1-3.2-5-3.8 0-0.5-3.8-3-8.4-5.5-4.7-2.5-8.3-4.6-8-4.7 0.2-0.2 1.7 0.4 3.4 1.2 1.6 0.8 3.2 1.5 3.5 1.5 0.3 0 0.3-0.4 0-1-0.3-0.5-2.9-2.5-5.8-4.4-2.8-1.8-8.4-5-12.2-7.3-4-2.1-11.6-6.1-17.1-9l-10-5.2c19.4-9.8 29.6-15.6 35.1-19.3 5.5-3.7 11.6-8.5 13.7-10.6 2-2.1 4.5-5.6 5.7-7.8 1.2-2.2 2.1-5.8 2.1-7.8 0-2.1-1.1-5.9-2.4-8.5-1.2-2.7-3.9-6.1-5.8-7.8-2-1.6-5.3-3.6-7.4-4.2-2.2-0.7-8.6-1.2-14.5-1.2-8 0-13.1 0.7-21.5 2.8zm19 12.2c2.2-0.5 7.1-0.9 10.8-1q6.8-0.1 7.4 1.2c0.4 0.7-1.7 3.5-4.7 6.6-3 3-9.5 8.1-14.5 11.4-5 3.3-12.8 7.7-17.5 9.9-4.7 2.2-8.6 3.8-8.7 3.7-0.1-0.2 0.9-2.8 2.2-5.8 1.4-3 2.4-7 2.5-8.7 0-2.1-0.9-4.4-5-9.4l2.7-1.1c1.6-0.6 4.6-1.7 6.8-2.4 2.2-0.7 6.2-1.8 9-2.4 2.7-0.7 6.8-1.6 9-2zm-85.1 15.6c8.2-2.4 15.2-4.4 15.5-4.5 0.2-0.1-1.7 2-4.3 4.7-2.8 2.8-5.2 6.1-5.7 8.2-0.5 2.2-0.5 4.5 0.1 6 0.6 1.4 2.5 4 4.2 5.8 1.8 1.8 3.5 3.2 3.9 3.2 0.4 0 1.4-0.7 2.2-1.5 0.9-0.8 1.4-2.2 1.1-3-0.3-0.9 1.1-3 3.2-5.1 2.1-2 6.7-5.5 10.3-7.8 3.7-2.4 8.3-5.3 10.4-6.5 2.1-1.2 4-2.1 4.3-1.9 0.3 0.2-2.3 6.4-5.7 13.8-3.4 7.4-6.6 14-7.1 14.5-0.5 0.6-3.1 1.7-5.7 2.6-2.6 0.9-5.2 2.3-5.7 3.2-0.7 1.1-0.6 3.1 0.4 6.4 0.7 2.7 1.5 5.5 1.8 6.3 0.3 1.1-1.2 1.9-6.4 3.3-4.3 1.1-7 1.4-7.3 0.8q-0.5-1-4.5 0c-2.9 0.7-4.1 0.7-4.5-0.1-0.4-0.7-1.3-0.8-3.3 0-1.5 0.5-4.6 1-7 1-2.3 0-8.5 1.1-13.7 2.6-5.3 1.3-13.4 3.5-18.1 4.9-4.7 1.4-8.6 2.4-8.6 2.3-0.1-0.1 1.2-3.3 2.9-7.2 1.7-3.9 3.6-7.4 4.2-7.8 0.5-0.4 4.8-1.4 9.5-2.3 4.7-1 9.7-2.1 11.1-2.5 1.4-0.5 5-1.4 8-1.9 4-0.8 5.7-1.6 6.2-3.1 0.7-1.6 0.4-2-1.5-2.1-1.3-0.1-0.5-0.5 1.8-1 2.2-0.5 4.7-1.2 5.5-1.5 1.3-0.4 1.3-0.6 0-1.4-1.3-0.8-1.3-0.9 0-1.4 0.8-0.2 3.6-0.7 6.2-1 2.7-0.3 5.1-1.1 5.5-1.8 0.6-0.9-0.4-1-4-0.5-2.9 0.4-4.7 0.3-4.7-0.3 0-0.6-1.7-0.7-4.6-0.2-3.8 0.6-4.7 0.4-5.5-1-0.6-1.3-2.1-1.8-4.9-1.8-2.2 0-7.3 0.5-11.3 1-4 0.6-7.4 1-7.5 0.8-0.2-0.2 1.2-3.4 3.1-7.3 3.2-7 3.3-7 9.3-8.8 3.2-1 12.6-3.7 20.9-6.1zm-82.1-20.9c-1 1-1.9 2.2-1.8 2.5 0.1 0.4-5.5 6.9-12.5 14.6-6.9 7.5-19 21.1-26.8 30.2-7.8 9.1-14.8 17-15.6 17.7-1.2 1-1.5-2.1-2.1-21-0.4-17.8-0.8-22.8-2.1-25.2-1-1.8-3.9-4.3-7.2-6.1-4.9-2.6-5.8-2.9-8.1-1.7-1.7 0.8-2.5 2-2.5 3.8 0 1.4-2.8 8.2-6.3 15.3-3.4 7-7.9 16.4-10 21-3.4 7.6-4 8.3-7.5 9.2-2 0.5-4.8 0.9-6.2 0.9-1.4 0-4.9-0.2-7.9-0.2l-5.3-0.2c0.9-9.3 1.6-19.3 2.1-28.2 0.8-13.8 0.8-16.8-0.5-19.6-1-2.2-3-4.1-6.2-5.6-2.7-1.3-5.7-2.2-6.8-2-1.1 0.2-2.2 1.2-2.4 2.3-0.2 1.1-4.1 7.1-8.6 13.1-4.5 6.1-9.5 12.9-11.1 15.3-2.1 3.1-3.9 4.6-6.4 5.2-1.9 0.5-5.2 1.1-7.3 1.4-2 0.3-3.7 0.4-3.7 0.1 0-0.3 1-1 2.2-1.5 1.9-0.8 1.6-0.9-1.2-0.3-2 0.3-4.6 0.6-5.9 0.5-1.2-0.1-6.4 0.9-11.5 2.3-5 1.4-12.6 3.7-16.7 5-4.1 1.3-18.6 6-32.4 10.4-13.6 4.5-25.3 8.1-26 8.1-0.6 0-2 0.5-3 1.2-1.4 1-1.7 2.1-1.2 4.9 0.3 1.9 1.6 4.6 2.8 6 1.2 1.4 3.5 3.6 5.2 4.8 1.6 1.3 4.2 2.3 5.7 2.2 1.6 0 5.8-1.1 9.5-2.5 3.8-1.4 6.1-1.9 5.3-1.1-0.8 0.7-5.3 4.5-10 8.3-4.7 3.9-12.3 9.5-17 12.6-4.7 3-11.7 7.1-15.5 9-3.9 1.9-8.7 3.9-10.6 4.5-1.9 0.5-4.3 1.3-5.3 1.6-1.4 0.5-1.7 0-1.7-3.1 0-2.1 0.7-6 1.6-8.8 0.8-2.7 2.8-7.5 4.5-10.5 1.6-3 5.4-8.9 8.6-13 3.1-4.1 8-9.9 10.8-12.9 2.8-3 8.9-8.6 13.6-12.6 4.7-3.9 11.6-9.5 15.5-12.3 3.8-2.8 10.4-6.9 14.5-9.2 4.2-2.2 10.3-4.9 13.6-6.1 3.3-1.1 7.2-2 8.7-2 1.6 0 3.7-0.4 4.8-1 1.1-0.5 2-1.9 2-3 0-1.1-1-3.7-2.1-5.7-1.2-2.1-3.2-4.9-4.5-6.1-1.8-1.7-3.6-2.3-6.9-2.3-2.5 0-7.3 0.9-10.8 2.1-3.4 1.2-9 3.6-12.3 5.2-3.3 1.7-10.1 5.8-15 9.1-5 3.3-12.2 8.6-16 11.8-3.9 3.1-9.7 8.4-13.1 11.6-3.3 3.2-8.7 8.7-11.9 12.3-3.2 3.6-8.3 10.4-11.4 15.1-3.1 4.7-6.9 11.7-8.6 15.5-2.1 4.9-3.1 9.2-3.4 14.5-0.3 5.2 0 8.6 1 11 0.8 1.9 3.9 6.1 6.9 9.3 3.6 4 6.9 6.5 9.9 7.5 3.1 1.1 6.4 1.5 10.5 1.1 4.2-0.3 8.8-1.8 14.6-4.5 4.7-2.2 11-5.7 14-7.6 3-1.9 9-6.3 13.2-9.7 4.3-3.3 7.8-5.9 7.8-5.6 0 0.3-1.1 3.1-2.4 6.3-1.3 3.1-3.5 9.1-4.9 13.2-1.4 4.2-3.2 10.1-4.1 13.1-0.8 3-2 8.2-2.7 11.5-0.6 3.3-1.3 6.9-1.5 8-0.2 1.1-0.5 3.1-0.8 4.5-0.3 1.4-1.2 4.5-2.1 7-0.8 2.5-1.5 5.1-1.5 5.8 0 0.7 0.5 0.9 1.2 0.5 0.7-0.4 0.3 0.6-1 2.2-1.2 1.7-3 5.4-3.8 8.1-0.9 2.8-1.3 5.2-1 5.5 0.3 0.3 1.1-0.8 1.8-2.5 0.7-1.6 1.8-3.3 2.5-3.7 0.7-0.5 2.6-3.8 4.3-7.4 1.6-3.6 3.4-6.7 4-7 0.5-0.3 1-1.7 1-3.2 0.1-1.6 0.7-3.9 1.5-5.3 0.8-1.4 1.5-2 1.5-1.5 0 0.6-0.6 3.3-1.4 6-0.9 2.8-1.3 5.2-1.1 5.5 0.3 0.3 1.8-2.5 3.5-6.2 1.6-3.8 3-7.4 3-8 0-1 0.2-1 0.8 0 0.4 0.7 2.4-2.8 5.1-9 2.4-5.7 7.5-17.5 11.5-26.4 3.8-8.8 11-24.1 15.9-34 6.5-13.1 8.9-18.8 8.6-21.1-0.3-2.8 0.1-3.1 6.2-5.6 3.6-1.4 8.3-3.4 10.5-4.4 2.2-0.9 5-2.1 6.2-2.6 1.3-0.5 2.1-1.3 1.8-1.9-0.3-0.5 0.2-1.2 1-1.5 1.2-0.4 1.3-0.8 0.2-2.1-0.6-0.9-0.8-1.5-0.2-1.4 0.5 0.2 2.7-0.4 4.8-1.3 2.1-1 4.4-1.7 5-1.8 0.7-0.1 0.2-0.4-1.2-0.8-2.3-0.7-2.1-0.9 2.5-2.5l5-1.7c-2.5 3.6-7.3 10.9-12.3 18.6l-9.2 14.1c-15.9 5.4-21.4 7.7-22.6 8.6-1.9 1.5-1.9 1.8-0.5 4.9 0.8 1.9 3.2 4.7 5.2 6.4l3.8 3.1c-7 12.4-9 16.3-9 16.8 0 0.4 0.6 0.4 1.2 0 0.7-0.4 0.2 1-1.1 3.2-1.3 2.2-4.9 8.1-7.8 13.1-3.1 5.1-4.3 7.7-2.8 6 1.5-1.6 4.7-5 7.1-7.5 2.4-2.6 5.5-5.6 6.9-6.8 1.4-1.3 2.8-2.9 3.2-3.5 0.5-0.7 1.8-1.9 3-2.5 1.3-0.7 2.1-0.8 1.8-0.3-0.3 0.6-0.1 1 0.5 1 0.5 0 1.2-0.7 1.5-1.5 0.3-0.8 1.1-1.5 1.7-1.5 0.7 0 2-0.9 2.8-2.1 0.8-1.2 2.8-3.9 4.5-5.9 1.6-2.1 4.8-6.2 7.1-9.1l4.1-5.4c22.4-6.6 29.7-8.5 30.6-8.5 1.5 0 1.9 1.2 2.3 6.8 0.3 3.7 1.5 11.7 2.6 17.7 1.2 6.1 2.5 11.5 3 12 0.5 0.6 0.9 2.2 0.9 3.8 0 1.5 1.1 3.9 2.5 5.6 1.4 1.5 2.6 3.4 2.6 4.2-0.1 0.8 1.6 6.3 3.7 12.3 2 5.9 4 10.7 4.4 10.7 0.5 0 0.5-0.8 0.2-1.7-0.4-1-0.8-4-1-6.8-0.2-2.7-0.8-6.3-1.3-8-0.5-1.6-1-4.6-1-6.5 0-1.9-0.3-4.3-0.6-5.2-0.3-1.1-0.2-1.9 0.2-1.9 0.5 0 0.6-2.6 0.4-5.7-0.3-4.2-0.1-5.6 0.7-5 0.9 0.5 1.1-4.3 0.7-19l-0.5-19.8c7.1-3.1 9.1-4.3 9.1-4.7 0-0.5-1.5-0.8-3.3-0.9l-3.3-0.1c6.6-2.1 7.5-2.8 6.6-3.1-0.9-0.3 0.2-1.1 2.8-1.9 2.3-0.8 4.2-1.8 4.1-2.2-0.1-0.5-0.6-0.6-1.1-0.3-0.4 0.3-1.6 0.3-2.6-0.1-1.2-0.5-0.3-1 3.3-2 2.7-0.8 5.1-1.2 5.3-1.1 0.1 0.2-1.4 4.6-3.4 9.8-2 5.3-5 13.4-6.5 18.1-1.6 4.7-3.6 11.2-4.4 14.5-0.7 3.3-2 8.4-2.5 11.3-0.6 2.8-1.1 5.7-1.1 6.2 0 0.6 0.4 1 1 1 0.5 0 1.1-0.6 1.1-1.2 0-0.7 0.9-2.4 2-3.8l1.9-2.5c-1.4 6.2-1.9 8.7-1.9 9.5 0 1 0.7 0.6 1.9-1 1.1-1.4 1.8-2.8 1.5-3.2-0.2-0.5 0.3-0.6 1.1-0.3 0.9 0.3 1.5-0.1 1.5-1 0-0.8 0.4-1.3 1-1 0.5 0.3 1.2-0.2 1.5-1 0.4-1.2 0.8-1.3 2-0.2 1.3 1 1.6 1 1.5 0 0-0.7 0.3-1.1 0.7-0.8 0.5 0.2 1.4-0.6 2-1.8 0.7-1.2 3.6-8.9 6.4-17.2 2.8-8.2 7.1-19.8 9.5-25.8 2.4-6 4.8-10.8 5.4-10.8 0.6 0 1 2.6 1 5.8 0 3.1 0.6 8.1 1.4 10.8 1.1 3.6 2.7 6.2 6 9.3 2.5 2.3 6.4 4.8 8.6 5.5 3.4 1 4.5 1 6.7-0.3 1.5-0.8 5.4-4.6 8.7-8.5 3.3-3.8 6.7-7.9 7.6-9 0.9-1.1 4.2-5.2 7.3-9.1 3-3.8 7.2-8.8 9.2-11l3.5-4c-3.1 9.3-5.8 19-8 27.6-2.1 8.5-4.4 19.1-5 23.5-0.6 4.4-0.9 11.2-0.6 15 0.2 3.9 1.2 12.6 2.1 19.6 1 6.9 2 13 2.4 13.5 0.4 0.6 1-1.7 1.4-5 0.4-3.3 1-8.1 1.3-10.7 0.3-2.7 0.9-4.9 1.5-4.9 0.5 0 1-1 1-2.2 0-1.4 0.3-1.8 0.8-1.1 0.5 0.9 1.1 0.9 2.3 0 1-0.8 2.2-4.9 3.3-11.7 0.9-5.8 3.7-17.5 6.1-26 2.4-8.5 5.3-18.9 6.4-22.8 1.3-4 5.8-17.8 10.3-30.5 7.6-21.9 8-23.6 6.7-26.3-0.7-1.6-3.6-4.4-6.3-6.3-2.8-1.8-5.3-3.3-5.6-3.3-0.3 0-1.4 0.8-2.4 1.8zm-147.4 57.1c3.9-6 7.2-10.8 7.3-10.8 0.2 0 0.3 4.2 0.3 18.5l-7.2 1.8c-4 1-7.4 1.7-7.4 1.5-0.1-0.2 3.1-5.1 7-11z"
    fill="#fff"
  />
</svg>
